<svg class="main-svg" xmlns="http://www.w3.org/2000/svg" xmlns:xlink="http://www.w3.org/1999/xlink" width="700" height="500" style="" viewBox="0 0 700 500"><rect x="0" y="0" width="700" height="500" style="fill: rgb(0, 0, 0); fill-opacity: 0;"/><defs id="defs-3e83ca"><g class="clips"><clipPath id="clip3e83caxyplot" class="plotclip"><rect width="540" height="320"/></clipPath><clipPath class="axesclip" id="clip3e83cax"><rect x="80" y="0" width="540" height="500"/></clipPath><clipPath class="axesclip" id="clip3e83cay"><rect x="0" y="100" width="700" height="320"/></clipPath><clipPath class="axesclip" id="clip3e83caxy"><rect x="80" y="100" width="540" height="320"/></clipPath></g><g class="gradients"/><g class="patterns"/></defs><g class="bglayer"><rect class="bg" x="80" y="100" width="540" height="320" style="fill: rgb(0, 0, 0); fill-opacity: 0; stroke-width: 0;"/></g><g class="layer-below"><g class="imagelayer"/><g class="shapelayer"/></g><g class="cartesianlayer"><g class="subplot xy"><g class="layer-subplot"><g class="shapelayer"/><g class="imagelayer"/></g><g class="minor-gridlayer"><g class="x"/><g class="y"/></g><g class="gridlayer"><g class="x"><path class="xgrid crisp" transform="translate(167.53,0)" d="M0,100v320" style="stroke: rgb(255, 255, 255); stroke-opacity: 1; stroke-width: 1px;"/><path class="xgrid crisp" transform="translate(258.02,0)" d="M0,100v320" style="stroke: rgb(255, 255, 255); stroke-opacity: 1; stroke-width: 1px;"/><path class="xgrid crisp" transform="translate(348.52,0)" d="M0,100v320" style="stroke: rgb(255, 255, 255); stroke-opacity: 1; stroke-width: 1px;"/><path class="xgrid crisp" transform="translate(440.49,0)" d="M0,100v320" style="stroke: rgb(255, 255, 255); stroke-opacity: 1; stroke-width: 1px;"/><path class="xgrid crisp" transform="translate(530.99,0)" d="M0,100v320" style="stroke: rgb(255, 255, 255); stroke-opacity: 1; stroke-width: 1px;"/></g><g class="y"><path class="ygrid crisp" transform="translate(0,338.55)" d="M80,0h540" style="stroke: rgb(255, 255, 255); stroke-opacity: 1; stroke-width: 1px;"/><path class="ygrid crisp" transform="translate(0,273.09000000000003)" d="M80,0h540" style="stroke: rgb(255, 255, 255); stroke-opacity: 1; stroke-width: 1px;"/><path class="ygrid crisp" transform="translate(0,207.64)" d="M80,0h540" style="stroke: rgb(255, 255, 255); stroke-opacity: 1; stroke-width: 1px;"/><path class="ygrid crisp" transform="translate(0,142.18)" d="M80,0h540" style="stroke: rgb(255, 255, 255); stroke-opacity: 1; stroke-width: 1px;"/></g></g><g class="zerolinelayer"><path class="yzl zl crisp" transform="translate(0,404)" d="M80,0h540" style="stroke: rgb(255, 255, 255); stroke-opacity: 1; stroke-width: 2px;"/></g><path class="xlines-below"/><path class="ylines-below"/><g class="overlines-below"/><g class="xaxislayer-below"/><g class="yaxislayer-below"/><g class="overaxes-below"/><g class="plot" transform="translate(80,100)" clip-path="url(#clip3e83caxyplot)"><g class="scatterlayer mlayer"><g class="trace scatter trace31df72" style="stroke-miterlimit: 2; opacity: 1;"><g class="fills"/><g class="errorbars"/><g class="lines"><path class="js-line" d="M0,238.55L1.48,304L2.97,212.36L4.45,290.91L5.93,277.82L7.42,264.73L8.9,264.73L11.87,304L13.35,264.73L14.84,212.36L16.32,264.73L17.8,304L19.29,277.82L20.77,251.64L22.25,290.91L25.22,264.73L26.7,304L28.19,304L29.67,251.64L31.15,277.82L32.64,277.82L34.12,277.82L35.6,290.91L37.09,277.82L38.57,304L41.54,304L43.02,290.91L44.51,304L45.99,304L47.47,290.91L48.96,264.73L50.44,304L51.92,304L53.41,277.82L54.89,290.91L57.86,264.73L59.34,277.82L62.31,277.82L63.79,304L66.76,277.82L68.24,304L71.21,264.73L72.69,264.73L75.66,304L77.14,277.82L78.63,304L80.11,290.91L83.08,290.91L84.56,277.82L86.04,251.64L87.53,264.73L89.01,304L90.49,238.55L91.98,238.55L93.46,290.91L94.95,277.82L96.43,290.91L97.91,251.64L99.4,251.64L100.88,264.73L102.36,251.64L103.85,290.91L105.33,304L106.81,251.64L108.3,264.73L111.26,238.55L112.75,251.64L114.23,264.73L115.71,264.73L117.2,304L118.68,264.73L120.16,304L121.65,304L123.13,277.82L124.62,290.91L126.1,290.91L127.58,264.73L129.07,290.91L130.55,290.91L132.03,277.82L133.52,251.64L135,304L136.48,290.91L137.97,290.91L139.45,264.73L140.93,290.91L142.42,251.64L143.9,290.91L145.38,290.91L148.35,264.73L149.84,264.73L151.32,238.55L152.8,290.91L154.29,186.18L155.77,277.82L157.25,304L158.74,277.82L160.22,304L161.7,277.82L163.19,277.82L164.67,290.91L166.15,238.55L167.64,304L169.12,290.91L170.6,290.91L173.57,238.55L175.05,290.91L176.54,238.55L178.02,225.45L179.51,304L180.99,277.82L182.47,264.73L183.96,277.82L185.44,264.73L186.92,264.73L188.41,238.55L189.89,304L191.37,264.73L192.86,264.73L194.34,238.55L195.82,264.73L197.31,277.82L198.79,277.82L200.27,251.64L201.76,290.91L204.73,225.45L206.21,238.55L209.18,290.91L210.66,264.73L212.14,264.73L213.63,290.91L215.11,277.82L216.59,277.82L219.56,304L221.04,290.91L222.53,290.91L224.01,277.82L225.49,264.73L226.98,238.55L228.46,290.91L229.95,290.91L231.43,277.82L232.91,290.91L234.4,290.91L235.88,264.73L237.36,304L238.85,251.64L241.81,290.91L243.3,290.91L244.78,264.73L246.26,277.82L247.75,277.82L249.23,251.64L252.2,277.82L253.68,304L255.16,264.73L256.65,290.91L259.62,238.55L261.1,277.82L264.07,304L265.55,277.82L267.03,277.82L268.52,264.73L270,277.82L271.48,277.82L272.97,251.64L274.45,277.82L275.93,251.64L277.42,251.64L278.9,251.64L280.38,212.36L283.35,304L284.84,251.64L286.32,277.82L287.8,277.82L290.77,238.55L292.25,304L293.74,304L295.22,238.55L296.7,251.64L298.19,251.64L299.67,277.82L301.15,238.55L302.64,290.91L304.12,264.73L305.6,160L307.09,290.91L308.57,264.73L310.05,264.73L311.54,290.91L313.02,264.73L314.51,186.18L315.99,277.82L317.47,304L318.96,264.73L320.44,251.64L321.92,277.82L323.41,277.82L324.89,290.91L326.37,304L327.86,212.36L329.34,277.82L330.82,225.45L332.31,277.82L333.79,290.91L335.27,212.36L336.76,304L339.73,212.36L341.21,238.55L344.18,304L345.66,264.73L347.14,251.64L348.63,277.82L350.11,251.64L351.59,277.82L353.08,264.73L354.56,290.91L357.53,290.91L359.01,304L360.49,238.55L361.98,264.73L364.95,290.91L366.43,290.91L367.91,304L369.4,290.91L370.88,290.91L372.36,277.82L373.85,199.27L375.33,277.82L376.81,264.73L378.3,277.82L381.26,225.45L382.75,238.55L385.71,277.82L387.2,277.82L388.68,264.73L390.16,264.73L391.65,173.09L393.13,225.45L394.62,264.73L396.1,251.64L397.58,304L399.07,277.82L400.55,251.64L402.03,290.91L403.52,277.82L405,290.91L406.48,304L407.97,304L409.45,277.82L410.93,277.82L412.42,264.73L413.9,277.82L415.38,277.82L416.87,251.64L419.84,251.64L421.32,290.91L422.8,277.82L424.29,277.82L425.77,212.36L427.25,264.73L428.74,238.55L430.22,277.82L431.7,264.73L433.19,225.45L434.67,251.64L436.15,251.64L437.64,304L439.12,277.82L440.6,251.64L442.09,251.64L443.57,277.82L445.05,264.73L446.54,290.91L448.02,264.73L449.51,238.55L450.99,186.18L452.47,225.45L453.96,238.55L455.44,146.91L456.92,277.82L458.41,264.73L459.89,304L461.37,238.55L462.86,225.45L464.34,199.27L465.82,277.82L467.31,290.91L468.79,277.82L470.27,277.82L471.76,238.55L473.24,251.64L474.73,186.18L476.21,264.73L477.69,277.82L479.18,290.91L480.66,238.55L482.14,277.82L483.63,277.82L486.59,277.82L488.08,251.64L489.56,290.91L491.04,304L492.53,277.82L494.01,304L495.49,120.73L496.98,212.36L498.46,238.55L499.95,290.91L502.91,290.91L504.4,264.73L505.88,212.36L507.36,251.64L508.85,264.73L510.33,290.91L511.81,304L513.3,277.82L514.78,225.45L516.26,212.36L517.75,238.55L519.23,225.45L520.71,290.91L522.2,251.64L525.16,225.45L526.65,94.55L528.13,173.09L529.62,16L531.1,212.36L532.58,290.91L535.55,225.45L537.03,264.73L538.52,277.82L540,277.82" style="vector-effect: none; fill: none; stroke: rgb(99, 110, 250); stroke-opacity: 1; stroke-width: 2px; opacity: 1;"/></g><g class="points"/><g class="text"/></g></g></g><g class="overplot"/><path class="xlines-above crisp" d="M0,0" style="fill: none;"/><path class="ylines-above crisp" d="M0,0" style="fill: none;"/><g class="overlines-above"/><g class="xaxislayer-above"><g class="xtick"><text text-anchor="middle" x="0" y="433" transform="translate(80,0)" style="font-family: 'Open Sans', verdana, arial, sans-serif; font-size: 12px; fill: rgb(42, 63, 95); fill-opacity: 1; white-space: pre; opacity: 1;">Jan 2022</text></g><g class="xtick"><text text-anchor="middle" x="0" y="433" style="font-family: 'Open Sans', verdana, arial, sans-serif; font-size: 12px; fill: rgb(42, 63, 95); fill-opacity: 1; white-space: pre; opacity: 1;" transform="translate(167.53,0)">Mar 2022</text></g><g class="xtick"><text text-anchor="middle" x="0" y="433" style="font-family: 'Open Sans', verdana, arial, sans-serif; font-size: 12px; fill: rgb(42, 63, 95); fill-opacity: 1; white-space: pre; opacity: 1;" transform="translate(258.02,0)">May 2022</text></g><g class="xtick"><text text-anchor="middle" x="0" y="433" style="font-family: 'Open Sans', verdana, arial, sans-serif; font-size: 12px; fill: rgb(42, 63, 95); fill-opacity: 1; white-space: pre; opacity: 1;" transform="translate(348.52,0)">Jul 2022</text></g><g class="xtick"><text text-anchor="middle" x="0" y="433" style="font-family: 'Open Sans', verdana, arial, sans-serif; font-size: 12px; fill: rgb(42, 63, 95); fill-opacity: 1; white-space: pre; opacity: 1;" transform="translate(440.49,0)">Sep 2022</text></g><g class="xtick"><text text-anchor="middle" x="0" y="433" style="font-family: 'Open Sans', verdana, arial, sans-serif; font-size: 12px; fill: rgb(42, 63, 95); fill-opacity: 1; white-space: pre; opacity: 1;" transform="translate(530.99,0)">Nov 2022</text></g></g><g class="yaxislayer-above"><g class="ytick"><text text-anchor="end" x="79" y="4.199999999999999" transform="translate(0,404)" style="font-family: 'Open Sans', verdana, arial, sans-serif; font-size: 12px; fill: rgb(42, 63, 95); fill-opacity: 1; white-space: pre; opacity: 1;">0</text></g><g class="ytick"><text text-anchor="end" x="79" y="4.199999999999999" style="font-family: 'Open Sans', verdana, arial, sans-serif; font-size: 12px; fill: rgb(42, 63, 95); fill-opacity: 1; white-space: pre; opacity: 1;" transform="translate(0,338.55)">5</text></g><g class="ytick"><text text-anchor="end" x="79" y="4.199999999999999" style="font-family: 'Open Sans', verdana, arial, sans-serif; font-size: 12px; fill: rgb(42, 63, 95); fill-opacity: 1; white-space: pre; opacity: 1;" transform="translate(0,273.09000000000003)">10</text></g><g class="ytick"><text text-anchor="end" x="79" y="4.199999999999999" style="font-family: 'Open Sans', verdana, arial, sans-serif; font-size: 12px; fill: rgb(42, 63, 95); fill-opacity: 1; white-space: pre; opacity: 1;" transform="translate(0,207.64)">15</text></g><g class="ytick"><text text-anchor="end" x="79" y="4.199999999999999" style="font-family: 'Open Sans', verdana, arial, sans-serif; font-size: 12px; fill: rgb(42, 63, 95); fill-opacity: 1; white-space: pre; opacity: 1;" transform="translate(0,142.18)">20</text></g></g><g class="overaxes-above"/></g></g><g class="polarlayer"/><g class="smithlayer"/><g class="ternarylayer"/><g class="geolayer"/><g class="funnelarealayer"/><g class="pielayer"/><g class="iciclelayer"/><g class="treemaplayer"/><g class="sunburstlayer"/><g class="glimages"/><defs id="topdefs-3e83ca"><g class="clips"/></defs><g class="layer-above"><g class="imagelayer"/><g class="shapelayer"/></g><g class="infolayer"><g class="g-gtitle"><text class="gtitle" x="35" y="50" text-anchor="start" dy="0em" style="font-family: 'Open Sans', verdana, arial, sans-serif; font-size: 17px; fill: rgb(42, 63, 95); opacity: 1; font-weight: normal; white-space: pre;">Violencia LGBTQ+ en 2022</text></g><g class="g-xtitle"><text class="xtitle" x="350" y="460.3" text-anchor="middle" style="font-family: 'Open Sans', verdana, arial, sans-serif; font-size: 14px; fill: rgb(42, 63, 95); opacity: 1; font-weight: normal; white-space: pre;">Fecha</text></g><g class="g-ytitle"><text class="ytitle" transform="rotate(-90,39.434375,260)" x="39.434375" y="260" text-anchor="middle" style="font-family: 'Open Sans', verdana, arial, sans-serif; font-size: 14px; fill: rgb(42, 63, 95); opacity: 1; font-weight: normal; white-space: pre;">Total</text></g></g></svg>