<svg class="main-svg" xmlns="http://www.w3.org/2000/svg" xmlns:xlink="http://www.w3.org/1999/xlink" width="700" height="500" style="" viewBox="0 0 700 500"><rect x="0" y="0" width="700" height="500" style="fill: rgb(0, 0, 0); fill-opacity: 0;"/><defs id="defs-27f300"><g class="clips"><clipPath id="clip27f300xyplot" class="plotclip"><rect width="464" height="320"/></clipPath><clipPath class="axesclip" id="clip27f300x"><rect x="80" y="0" width="464" height="500"/></clipPath><clipPath class="axesclip" id="clip27f300y"><rect x="0" y="100" width="700" height="320"/></clipPath><clipPath class="axesclip" id="clip27f300xy"><rect x="80" y="100" width="464" height="320"/></clipPath></g><g class="gradients"/><g class="patterns"/></defs><g class="bglayer"><rect class="bg" x="80" y="100" width="464" height="320" style="fill: rgb(0, 0, 0); fill-opacity: 0; stroke-width: 0;"/></g><g class="layer-below"><g class="imagelayer"/><g class="shapelayer"/></g><g class="cartesianlayer"><g class="subplot xy"><g class="layer-subplot"><g class="shapelayer"/><g class="imagelayer"/></g><g class="minor-gridlayer"><g class="x"/><g class="y"/></g><g class="gridlayer"><g class="x"><path class="xgrid crisp" transform="translate(155.20999999999998,0)" d="M0,100v320" style="stroke: rgb(255, 255, 255); stroke-opacity: 1; stroke-width: 1px;"/><path class="xgrid crisp" transform="translate(232.97,0)" d="M0,100v320" style="stroke: rgb(255, 255, 255); stroke-opacity: 1; stroke-width: 1px;"/><path class="xgrid crisp" transform="translate(310.73,0)" d="M0,100v320" style="stroke: rgb(255, 255, 255); stroke-opacity: 1; stroke-width: 1px;"/><path class="xgrid crisp" transform="translate(389.76,0)" d="M0,100v320" style="stroke: rgb(255, 255, 255); stroke-opacity: 1; stroke-width: 1px;"/><path class="xgrid crisp" transform="translate(467.52,0)" d="M0,100v320" style="stroke: rgb(255, 255, 255); stroke-opacity: 1; stroke-width: 1px;"/></g><g class="y"><path class="ygrid crisp" transform="translate(0,345.33000000000004)" d="M80,0h464" style="stroke: rgb(255, 255, 255); stroke-opacity: 1; stroke-width: 1px;"/><path class="ygrid crisp" transform="translate(0,286.65)" d="M80,0h464" style="stroke: rgb(255, 255, 255); stroke-opacity: 1; stroke-width: 1px;"/><path class="ygrid crisp" transform="translate(0,227.98000000000002)" d="M80,0h464" style="stroke: rgb(255, 255, 255); stroke-opacity: 1; stroke-width: 1px;"/><path class="ygrid crisp" transform="translate(0,169.31)" d="M80,0h464" style="stroke: rgb(255, 255, 255); stroke-opacity: 1; stroke-width: 1px;"/><path class="ygrid crisp" transform="translate(0,110.63)" d="M80,0h464" style="stroke: rgb(255, 255, 255); stroke-opacity: 1; stroke-width: 1px;"/></g></g><g class="zerolinelayer"><path class="yzl zl crisp" transform="translate(0,404)" d="M80,0h464" style="stroke: rgb(255, 255, 255); stroke-opacity: 1; stroke-width: 2px;"/></g><path class="xlines-below"/><path class="ylines-below"/><g class="overlines-below"/><g class="xaxislayer-below"/><g class="yaxislayer-below"/><g class="overaxes-below"/><g class="plot" transform="translate(80,100)" clip-path="url(#clip27f300xyplot)"><g class="scatterlayer mlayer"><g class="trace scatter tracee3e1bf" style="stroke-miterlimit: 2; opacity: 1;"><g class="fills"/><g class="errorbars"/><g class="lines"><path class="js-line" d="M0,304L3.82,304L5.1,268.8L6.37,254.71L7.65,178.67L8.92,253.87L10.2,107.93L11.47,190.37L12.75,223.34L14.02,236.53L15.3,100.99L16.57,152.39L17.85,137.74L19.12,202.29L20.4,228.11L21.67,168.03L22.95,214.41L24.22,268.16L25.49,219.26L26.77,199.7L28.04,191.87L29.32,118.33L30.59,194.53L31.87,260.21L33.14,216.08L34.42,233.63L35.69,275.85L36.97,257.54L38.24,250.21L39.52,247.28L40.79,210.9L42.07,266.76L43.34,289.1L44.62,298.04L45.89,231.21L47.16,239.68L48.44,243.07L50.99,160.48L52.26,176.18L54.81,16L56.09,83.19L57.36,145.27L58.64,170.1L59.91,109.62L61.19,226.25L62.46,132.08L63.74,164.83L65.01,213.13L66.29,162.04L67.56,141.6L68.84,98.23L70.11,221.69L71.38,200.67L72.66,227.46L73.93,238.18L75.21,277.67L76.48,223.06L77.76,130.81L79.03,199.52L80.31,227L81.58,167.59L82.86,179.03L84.13,113.2L85.41,122.07L86.68,196.02L87.96,190.4L89.23,82.54L91.78,205.2L93.05,229.28L94.33,133.3L95.6,200.51L96.88,262.61L98.15,217.03L99.43,163.6L100.7,36.62L101.98,161.84L103.25,176.73L104.53,253.09L105.8,213.23L107.08,232.49L108.35,240.19L109.63,278.48L110.9,258.59L113.45,247.45L114.73,210.97L116,231.58L117.27,275.03L118.55,292.41L119.82,264.16L121.1,252.86L122.37,248.34L124.92,245.81L126.2,175.11L127.47,217.24L128.75,128.48L130.02,128.18L131.3,198.47L132.57,226.58L133.85,273.03L135.12,221.21L136.4,200.47L137.67,192.18L138.95,188.87L140.22,222.74L141.49,236.29L142.77,136.1L144.04,201.64L145.32,263.05L146.59,252.42L149.14,77.48L150.42,142.99L151.69,239.59L152.97,243.03L154.24,209.21L155.52,230.88L156.79,169.14L158.07,214.85L159.34,127.53L160.62,92.59L161.89,149.03L163.16,171.6L164.44,180.63L165.71,113.84L169.54,231.28L170.81,169.3L172.09,179.71L173.36,219.08L174.64,164.42L175.91,177.76L177.19,218.3L178.46,58.5L181.01,250.64L182.29,282.66L183.56,295.46L184.84,300.58L186.11,267.43L187.38,289.37L188.66,298.15L189.93,266.46L191.21,253.78L192.48,248.71L193.76,281.88L195.03,259.95L196.31,215.97L197.58,233.58L200.13,243.45L201.41,244.58L202.68,280.23L203.96,294.49L205.23,300.2L206.51,161.66L207.78,211.86L209.05,231.94L211.6,243.19L212.88,209.27L214.15,266.11L215.43,288.84L216.7,297.94L217.98,231.17L219.25,274.87L220.53,292.35L221.8,299.34L223.08,266.93L224.35,289.17L225.63,262.87L226.9,252.34L228.18,283.34L229.45,190.12L230.73,258.45L232,180.17L233.27,254.47L234.55,248.98L235.82,281.99L237.1,259.99L238.37,215.99L239.65,233.59L240.92,205.43L242.2,158.96L243.47,210.78L244.75,266.71L246.02,253.88L247.3,283.95L248.57,225.57L249.85,202.22L251.12,157.68L252.4,245.47L253.67,280.59L254.95,259.43L256.22,286.17L257.49,226.46L258.77,272.98L260.04,221.19L261.32,200.47L262.59,227.38L263.87,238.15L265.14,207.25L266.42,265.3L267.69,288.52L268.97,297.81L271.52,303.01L272.79,162.79L274.07,177.11L275.34,112.43L276.62,227.37L277.89,238.14L279.16,207.25L280.44,265.3L281.71,182.91L282.99,185.16L284.26,256.46L285.54,249.78L286.81,176.7L288.09,253.08L289.36,178.02L290.64,218.4L291.91,164.15L293.19,212.86L294.46,267.54L295.74,148.6L297.01,206.64L298.29,229.85L299.56,168.73L300.84,214.69L302.11,268.28L303.38,254.51L304.66,284.2L305.93,296.08L307.21,195.22L308.48,190.08L309.76,223.23L311.03,95.67L314.86,265.32L316.13,218.12L317.41,234.44L318.68,276.18L319.96,257.67L321.23,109.45L322.51,155.77L323.78,244.71L325.05,280.28L326.33,259.31L327.6,145.31L328.88,134.91L330.15,130.75L331.43,58.68L332.7,100.26L333.98,116.89L335.25,158.75L336.53,175.49L337.8,217.39L339.08,163.75L340.35,71.88L341.63,140.74L342.9,238.7L344.18,242.68L346.73,244.9L348,209.95L349.27,195.97L350.55,49.57L354.37,276.45L355.65,187.37L356.92,186.94L358.2,257.18L359.47,285.27L360.75,261.3L362.02,251.72L363.3,142.27L364.57,204.1L365.85,158.43L367.12,69.75L368.4,104.69L369.67,189.07L370.95,222.82L372.22,236.33L373.49,171.32L374.77,110.11L376.04,191.24L377.32,258.9L378.59,180.35L379.87,148.93L381.14,206.77L382.42,229.9L383.69,274.36L384.97,292.14L386.24,158.44L387.52,245.78L388.79,245.51L390.07,210.2L391.34,266.48L392.62,183.38L393.89,220.55L395.16,165.01L396.44,248.4L397.71,211.35L398.99,231.74L400.26,239.89L401.54,207.95L402.81,230.38L404.09,204.14L405.36,193.65L406.64,189.45L407.91,187.77L409.19,222.31L410.46,130.51L411.74,199.4L413.01,86.14L414.29,76.04L415.56,177.61L416.84,218.24L418.11,269.7L419.38,290.28L420.66,263.31L421.93,182.11L423.21,255.24L424.48,284.5L425.76,225.79L427.03,202.31L428.31,157.71L429.58,245.48L430.86,280.59L432.13,294.64L433.41,229.85L434.68,203.93L435.96,263.97L437.23,147.17L438.51,135.66L439.78,201.46L441.05,192.58L442.33,224.23L443.6,272.09L444.88,220.83L446.15,129.92L447.43,199.16L448.7,226.86L449.98,167.53L451.25,179.01L452.53,148.39L453.8,206.55L455.08,124.21L456.35,161.67L457.63,247.07L458.9,281.23L460.18,259.69L461.45,180.66L462.73,219.46L464,234.98" style="vector-effect: none; fill: none; stroke: rgb(99, 110, 250); stroke-opacity: 1; stroke-width: 2px; opacity: 1;"/></g><g class="points"/><g class="text"/></g></g></g><g class="overplot"/><path class="xlines-above crisp" d="M0,0" style="fill: none;"/><path class="ylines-above crisp" d="M0,0" style="fill: none;"/><g class="overlines-above"/><g class="xaxislayer-above"><g class="xtick"><text text-anchor="middle" x="0" y="433" transform="translate(80,0)" style="font-family: 'Open Sans', verdana, arial, sans-serif; font-size: 12px; fill: rgb(42, 63, 95); fill-opacity: 1; white-space: pre; opacity: 1;">Jan 2021</text></g><g class="xtick"><text text-anchor="middle" x="0" y="433" style="font-family: 'Open Sans', verdana, arial, sans-serif; font-size: 12px; fill: rgb(42, 63, 95); fill-opacity: 1; white-space: pre; opacity: 1;" transform="translate(155.20999999999998,0)">Mar 2021</text></g><g class="xtick"><text text-anchor="middle" x="0" y="433" style="font-family: 'Open Sans', verdana, arial, sans-serif; font-size: 12px; fill: rgb(42, 63, 95); fill-opacity: 1; white-space: pre; opacity: 1;" transform="translate(232.97,0)">May 2021</text></g><g class="xtick"><text text-anchor="middle" x="0" y="433" style="font-family: 'Open Sans', verdana, arial, sans-serif; font-size: 12px; fill: rgb(42, 63, 95); fill-opacity: 1; white-space: pre; opacity: 1;" transform="translate(310.73,0)">Jul 2021</text></g><g class="xtick"><text text-anchor="middle" x="0" y="433" style="font-family: 'Open Sans', verdana, arial, sans-serif; font-size: 12px; fill: rgb(42, 63, 95); fill-opacity: 1; white-space: pre; opacity: 1;" transform="translate(389.76,0)">Sep 2021</text></g><g class="xtick"><text text-anchor="middle" x="0" y="433" style="font-family: 'Open Sans', verdana, arial, sans-serif; font-size: 12px; fill: rgb(42, 63, 95); fill-opacity: 1; white-space: pre; opacity: 1;" transform="translate(467.52,0)">Nov 2021</text></g></g><g class="yaxislayer-above"><g class="ytick"><text text-anchor="end" x="79" y="4.199999999999999" transform="translate(0,404)" style="font-family: 'Open Sans', verdana, arial, sans-serif; font-size: 12px; fill: rgb(42, 63, 95); fill-opacity: 1; white-space: pre; opacity: 1;">0</text></g><g class="ytick"><text text-anchor="end" x="79" y="4.199999999999999" style="font-family: 'Open Sans', verdana, arial, sans-serif; font-size: 12px; fill: rgb(42, 63, 95); fill-opacity: 1; white-space: pre; opacity: 1;" transform="translate(0,345.33000000000004)">1</text></g><g class="ytick"><text text-anchor="end" x="79" y="4.199999999999999" style="font-family: 'Open Sans', verdana, arial, sans-serif; font-size: 12px; fill: rgb(42, 63, 95); fill-opacity: 1; white-space: pre; opacity: 1;" transform="translate(0,286.65)">2</text></g><g class="ytick"><text text-anchor="end" x="79" y="4.199999999999999" style="font-family: 'Open Sans', verdana, arial, sans-serif; font-size: 12px; fill: rgb(42, 63, 95); fill-opacity: 1; white-space: pre; opacity: 1;" transform="translate(0,227.98000000000002)">3</text></g><g class="ytick"><text text-anchor="end" x="79" y="4.199999999999999" style="font-family: 'Open Sans', verdana, arial, sans-serif; font-size: 12px; fill: rgb(42, 63, 95); fill-opacity: 1; white-space: pre; opacity: 1;" transform="translate(0,169.31)">4</text></g><g class="ytick"><text text-anchor="end" x="79" y="4.199999999999999" style="font-family: 'Open Sans', verdana, arial, sans-serif; font-size: 12px; fill: rgb(42, 63, 95); fill-opacity: 1; white-space: pre; opacity: 1;" transform="translate(0,110.63)">5</text></g></g><g class="overaxes-above"/></g></g><g class="polarlayer"/><g class="smithlayer"/><g class="ternarylayer"/><g class="geolayer"/><g class="funnelarealayer"/><g class="pielayer"/><g class="iciclelayer"/><g class="treemaplayer"/><g class="sunburstlayer"/><g class="glimages"/><defs id="topdefs-27f300"><g class="clips"/><clipPath id="legend27f300"><rect width="135" height="48" x="0" y="0"/></clipPath></defs><g class="layer-above"><g class="imagelayer"/><g class="shapelayer"/></g><g class="infolayer"><g class="legend" pointer-events="all" transform="translate(553.28,100)"><rect class="bg" shape-rendering="crispEdges" width="135" height="48" x="0" y="0" style="stroke: rgb(68, 68, 68); stroke-opacity: 1; fill: rgb(0, 0, 0); fill-opacity: 0; stroke-width: 0px;"/><g class="scrollbox" transform="" clip-path="url(#legend27f300)"><text class="legendtitletext" text-anchor="start" x="2" y="18.2" style="font-family: 'Open Sans', verdana, arial, sans-serif; font-size: 14px; fill: rgb(42, 63, 95); fill-opacity: 1; white-space: pre;">variable</text><g class="groups" transform=""><g class="traces" transform="translate(0,32.7)" style="opacity: 1;"><text class="legendtext" text-anchor="start" x="40" y="4.680000000000001" style="font-family: 'Open Sans', verdana, arial, sans-serif; font-size: 12px; fill: rgb(42, 63, 95); fill-opacity: 1; white-space: pre;">suavizado_exp</text><g class="layers" style="opacity: 1;"><g class="legendfill"/><g class="legendlines"><path class="js-line" d="M5,0h30" style="fill: none; stroke: rgb(99, 110, 250); stroke-opacity: 1; stroke-width: 2px;"/></g><g class="legendsymbols"><g class="legendpoints"/></g></g><rect class="legendtoggle" x="0" y="-9.5" width="129.515625" height="19" style="fill: rgb(0, 0, 0); fill-opacity: 0;"/></g></g></g><rect class="scrollbar" rx="20" ry="3" width="0" height="0" x="0" y="0" style="fill: rgb(128, 139, 164); fill-opacity: 1;"/></g><g class="g-gtitle"><text class="gtitle" x="35" y="50" text-anchor="start" dy="0em" style="font-family: 'Open Sans', verdana, arial, sans-serif; font-size: 17px; fill: rgb(42, 63, 95); opacity: 1; font-weight: normal; white-space: pre;">Violencia LGBTQ+ en 2021</text></g><g class="g-xtitle"><text class="xtitle" x="312" y="460.3" text-anchor="middle" style="font-family: 'Open Sans', verdana, arial, sans-serif; font-size: 14px; fill: rgb(42, 63, 95); opacity: 1; font-weight: normal; white-space: pre;">Fecha</text></g><g class="g-ytitle"><text class="ytitle" transform="rotate(-90,47.059375,260)" x="47.059375" y="260" text-anchor="middle" style="font-family: 'Open Sans', verdana, arial, sans-serif; font-size: 14px; fill: rgb(42, 63, 95); opacity: 1; font-weight: normal; white-space: pre;">value</text></g></g></svg>