<svg class="main-svg" xmlns="http://www.w3.org/2000/svg" xmlns:xlink="http://www.w3.org/1999/xlink" width="700" height="500" style="" viewBox="0 0 700 500"><rect x="0" y="0" width="700" height="500" style="fill: rgb(0, 0, 0); fill-opacity: 0;"/><defs id="defs-c90f6d"><g class="clips"><clipPath id="clipc90f6dxyplot" class="plotclip"><rect width="464" height="320"/></clipPath><clipPath class="axesclip" id="clipc90f6dx"><rect x="80" y="0" width="464" height="500"/></clipPath><clipPath class="axesclip" id="clipc90f6dy"><rect x="0" y="100" width="700" height="320"/></clipPath><clipPath class="axesclip" id="clipc90f6dxy"><rect x="80" y="100" width="464" height="320"/></clipPath></g><g class="gradients"/><g class="patterns"/></defs><g class="bglayer"><rect class="bg" x="80" y="100" width="464" height="320" style="fill: rgb(0, 0, 0); fill-opacity: 0; stroke-width: 0;"/></g><g class="layer-below"><g class="imagelayer"/><g class="shapelayer"/></g><g class="cartesianlayer"><g class="subplot xy"><g class="layer-subplot"><g class="shapelayer"/><g class="imagelayer"/></g><g class="minor-gridlayer"><g class="x"/><g class="y"/></g><g class="gridlayer"><g class="x"><path class="xgrid crisp" transform="translate(181.76999999999998,0)" d="M0,100v320" style="stroke: rgb(255, 255, 255); stroke-opacity: 1; stroke-width: 1px;"/><path class="xgrid crisp" transform="translate(286.99,0)" d="M0,100v320" style="stroke: rgb(255, 255, 255); stroke-opacity: 1; stroke-width: 1px;"/><path class="xgrid crisp" transform="translate(392.21,0)" d="M0,100v320" style="stroke: rgb(255, 255, 255); stroke-opacity: 1; stroke-width: 1px;"/><path class="xgrid crisp" transform="translate(499.15,0)" d="M0,100v320" style="stroke: rgb(255, 255, 255); stroke-opacity: 1; stroke-width: 1px;"/></g><g class="y"><path class="ygrid crisp" transform="translate(0,339.08000000000004)" d="M80,0h464" style="stroke: rgb(255, 255, 255); stroke-opacity: 1; stroke-width: 1px;"/><path class="ygrid crisp" transform="translate(0,273.19)" d="M80,0h464" style="stroke: rgb(255, 255, 255); stroke-opacity: 1; stroke-width: 1px;"/><path class="ygrid crisp" transform="translate(0,207.31)" d="M80,0h464" style="stroke: rgb(255, 255, 255); stroke-opacity: 1; stroke-width: 1px;"/><path class="ygrid crisp" transform="translate(0,141.42000000000002)" d="M80,0h464" style="stroke: rgb(255, 255, 255); stroke-opacity: 1; stroke-width: 1px;"/></g></g><g class="zerolinelayer"><path class="yzl zl crisp" transform="translate(0,404.96)" d="M80,0h464" style="stroke: rgb(255, 255, 255); stroke-opacity: 1; stroke-width: 2px;"/></g><path class="xlines-below"/><path class="ylines-below"/><g class="overlines-below"/><g class="xaxislayer-below"/><g class="yaxislayer-below"/><g class="overaxes-below"/><g class="plot" transform="translate(80,100)" clip-path="url(#clipc90f6dxyplot)"><g class="scatterlayer mlayer"><g class="trace scatter trace1028c1" style="stroke-miterlimit: 2; opacity: 1;"><g class="fills"/><g class="errorbars"/><g class="lines"><path class="js-line" d="M0,173.19L1.72,173.19L3.45,232.49L6.9,285.46L8.62,257.63L10.35,266.27L12.07,249.95L13.8,282.96L15.52,296.16L17.25,261.91L18.97,287.74L20.7,278.31L22.42,254.77L24.15,265.12L25.87,289.03L27.6,298.59L29.32,302.41L31.05,284.18L32.77,237.35L34.5,198.86L36.22,242.76L37.95,260.32L39.67,267.34L41.4,289.91L43.12,298.94L44.85,282.79L46.57,296.1L48.3,301.42L50.02,283.78L51.75,296.49L53.47,301.58L55.2,303.61L56.92,225.36L58.65,253.36L60.37,244.79L62.1,261.13L63.82,247.9L65.55,242.61L67.27,280.02L69,275.22L70.72,253.54L72.45,205.33L74.17,225.58L75.9,233.68L77.62,276.45L79.35,293.56L81.07,221.34L82.8,231.98L84.52,137.41L87.97,234.67L89.7,257.08L91.42,266.05L93.14,269.63L94.87,271.07L96.59,212.34L98.32,228.39L100.04,254.57L101.77,245.27L103.49,162.5L105.22,228.21L106.94,254.5L108.67,225.48L110.39,253.41L112.12,244.81L113.84,162.31L115.57,188.61L117.29,199.12L119.02,144.04L120.74,181.3L122.47,255.5L124.19,245.65L125.92,241.71L127.64,259.9L129.37,227.64L131.09,254.27L132.82,264.92L134.54,269.18L137.99,271.57L139.72,291.61L141.44,279.86L143.17,294.92L144.89,300.95L146.62,224.3L148.34,252.93L150.07,224.86L151.79,253.16L153.52,264.48L155.24,249.24L156.97,282.67L158.69,216.99L160.42,269.77L162.14,251.36L163.87,243.99L165.59,241.04L167.32,279.4L169.04,294.74L170.77,300.87L172.49,244.03L174.22,241.06L175.94,220.11L177.67,231.49L179.39,236.04L181.12,277.4L182.84,293.94L184.57,280.79L186.29,295.29L188.01,281.33L189.74,275.75L191.46,273.51L193.19,292.38L194.91,280.17L196.64,295.05L198.36,301L200.09,303.38L201.81,264.8L203.54,269.13L205.26,270.87L206.99,291.33L208.71,220.45L210.44,251.39L212.16,244L213.89,260.82L215.61,247.77L217.34,282.09L219.06,216.75L220.79,269.68L222.51,251.32L224.24,184.68L225.96,177.79L227.69,175.03L229.41,233.23L231.14,276.27L232.86,234.19L234.59,237.12L236.31,179L238.04,175.52L239.76,16L243.21,187.57L244.94,218.48L246.66,230.84L248.39,255.55L250.11,285.2L251.84,277.29L253.56,293.9L255.29,300.54L257.01,303.19L258.74,264.73L260.46,288.87L262.19,239.23L263.91,219.37L265.64,250.96L267.36,243.83L269.09,280.51L270.81,255.65L272.54,265.47L274.26,210.11L275.99,267.02L277.71,250.26L279.43,243.55L281.16,240.87L282.88,259.56L284.61,247.27L286.33,202.83L289.78,35.62L291.51,197.23L293.23,222.34L294.96,232.38L296.68,256.17L298.41,265.68L300.13,289.25L301.86,259.15L303.58,266.87L305.31,250.2L307.03,263.29L308.76,229L310.48,254.81L312.21,265.14L313.93,269.27L315.66,270.92L317.38,251.82L319.11,204.64L320.83,264.84L322.56,288.91L324.28,239.25L326.01,258.91L327.73,266.78L329.46,230.39L331.18,255.37L332.91,245.6L334.63,261.45L336.36,267.79L338.08,250.57L339.81,283.21L341.53,276.5L343.26,293.58L344.98,241.11L346.71,259.66L348.43,227.55L350.16,234.47L351.88,276.77L353.61,273.92L355.33,292.55L357.06,260.47L358.78,287.17L360.51,278.08L362.23,274.45L363.96,272.99L365.68,292.18L367.41,240.55L369.13,279.2L370.86,294.66L372.58,300.84L374.3,303.32L376.03,284.54L377.75,296.79L379.48,281.93L381.2,236.45L382.93,218.26L384.65,250.52L386.38,223.89L388.1,272.53L389.83,272.23L391.55,193.04L393.28,240.43L395,259.39L396.73,286.73L398.45,297.67L400.18,302.05L401.9,284.03L403.63,296.59L405.35,281.85L407.08,275.95L408.8,293.36L410.53,260.79L412.25,267.53L413.98,171.4L415.7,212.01L417.43,248.02L419.15,222.89L420.88,272.13L422.6,291.83L424.33,299.71L426.05,302.86L427.78,284.36L429.5,296.72L431.23,242.37L432.95,260.16L434.68,267.28L436.4,289.89L438.13,298.93L439.85,302.55L441.58,304L443.3,265.05L445.03,289L446.75,278.81L448.48,274.74L450.2,273.11L451.93,292.22L453.65,299.87L455.38,302.93L457.1,264.62L458.83,269.06L460.55,290.6L462.28,279.45L464,294.76" style="vector-effect: none; fill: none; stroke: rgb(99, 110, 250); stroke-opacity: 1; stroke-width: 2px; opacity: 1;"/></g><g class="points"/><g class="text"/></g></g></g><g class="overplot"/><path class="xlines-above crisp" d="M0,0" style="fill: none;"/><path class="ylines-above crisp" d="M0,0" style="fill: none;"/><g class="overlines-above"/><g class="xaxislayer-above"><g class="xtick"><text text-anchor="middle" x="0" y="433" transform="translate(80,0)" style="font-family: 'Open Sans', verdana, arial, sans-serif; font-size: 12px; fill: rgb(42, 63, 95); fill-opacity: 1; white-space: pre; opacity: 1;">Jan 2023</text></g><g class="xtick"><text text-anchor="middle" x="0" y="433" style="font-family: 'Open Sans', verdana, arial, sans-serif; font-size: 12px; fill: rgb(42, 63, 95); fill-opacity: 1; white-space: pre; opacity: 1;" transform="translate(181.76999999999998,0)">Mar 2023</text></g><g class="xtick"><text text-anchor="middle" x="0" y="433" style="font-family: 'Open Sans', verdana, arial, sans-serif; font-size: 12px; fill: rgb(42, 63, 95); fill-opacity: 1; white-space: pre; opacity: 1;" transform="translate(286.99,0)">May 2023</text></g><g class="xtick"><text text-anchor="middle" x="0" y="433" style="font-family: 'Open Sans', verdana, arial, sans-serif; font-size: 12px; fill: rgb(42, 63, 95); fill-opacity: 1; white-space: pre; opacity: 1;" transform="translate(392.21,0)">Jul 2023</text></g><g class="xtick"><text text-anchor="middle" x="0" y="433" style="font-family: 'Open Sans', verdana, arial, sans-serif; font-size: 12px; fill: rgb(42, 63, 95); fill-opacity: 1; white-space: pre; opacity: 1;" transform="translate(499.15,0)">Sep 2023</text></g></g><g class="yaxislayer-above"><g class="ytick"><text text-anchor="end" x="79" y="4.199999999999999" transform="translate(0,404.96)" style="font-family: 'Open Sans', verdana, arial, sans-serif; font-size: 12px; fill: rgb(42, 63, 95); fill-opacity: 1; white-space: pre; opacity: 1;">0</text></g><g class="ytick"><text text-anchor="end" x="79" y="4.199999999999999" style="font-family: 'Open Sans', verdana, arial, sans-serif; font-size: 12px; fill: rgb(42, 63, 95); fill-opacity: 1; white-space: pre; opacity: 1;" transform="translate(0,339.08000000000004)">2</text></g><g class="ytick"><text text-anchor="end" x="79" y="4.199999999999999" style="font-family: 'Open Sans', verdana, arial, sans-serif; font-size: 12px; fill: rgb(42, 63, 95); fill-opacity: 1; white-space: pre; opacity: 1;" transform="translate(0,273.19)">4</text></g><g class="ytick"><text text-anchor="end" x="79" y="4.199999999999999" style="font-family: 'Open Sans', verdana, arial, sans-serif; font-size: 12px; fill: rgb(42, 63, 95); fill-opacity: 1; white-space: pre; opacity: 1;" transform="translate(0,207.31)">6</text></g><g class="ytick"><text text-anchor="end" x="79" y="4.199999999999999" style="font-family: 'Open Sans', verdana, arial, sans-serif; font-size: 12px; fill: rgb(42, 63, 95); fill-opacity: 1; white-space: pre; opacity: 1;" transform="translate(0,141.42000000000002)">8</text></g></g><g class="overaxes-above"/></g></g><g class="polarlayer"/><g class="smithlayer"/><g class="ternarylayer"/><g class="geolayer"/><g class="funnelarealayer"/><g class="pielayer"/><g class="iciclelayer"/><g class="treemaplayer"/><g class="sunburstlayer"/><g class="glimages"/><defs id="topdefs-c90f6d"><g class="clips"/><clipPath id="legendc90f6d"><rect width="135" height="48" x="0" y="0"/></clipPath></defs><g class="layer-above"><g class="imagelayer"/><g class="shapelayer"/></g><g class="infolayer"><g class="legend" pointer-events="all" transform="translate(553.28,100)"><rect class="bg" shape-rendering="crispEdges" width="135" height="48" x="0" y="0" style="stroke: rgb(68, 68, 68); stroke-opacity: 1; fill: rgb(0, 0, 0); fill-opacity: 0; stroke-width: 0px;"/><g class="scrollbox" transform="" clip-path="url(#legendc90f6d)"><text class="legendtitletext" text-anchor="start" x="2" y="18.2" style="font-family: 'Open Sans', verdana, arial, sans-serif; font-size: 14px; fill: rgb(42, 63, 95); fill-opacity: 1; white-space: pre;">variable</text><g class="groups" transform=""><g class="traces" transform="translate(0,32.7)" style="opacity: 1;"><text class="legendtext" text-anchor="start" x="40" y="4.680000000000001" style="font-family: 'Open Sans', verdana, arial, sans-serif; font-size: 12px; fill: rgb(42, 63, 95); fill-opacity: 1; white-space: pre;">suavizado_exp</text><g class="layers" style="opacity: 1;"><g class="legendfill"/><g class="legendlines"><path class="js-line" d="M5,0h30" style="fill: none; stroke: rgb(99, 110, 250); stroke-opacity: 1; stroke-width: 2px;"/></g><g class="legendsymbols"><g class="legendpoints"/></g></g><rect class="legendtoggle" x="0" y="-9.5" width="129.515625" height="19" style="fill: rgb(0, 0, 0); fill-opacity: 0;"/></g></g></g><rect class="scrollbar" rx="20" ry="3" width="0" height="0" x="0" y="0" style="fill: rgb(128, 139, 164); fill-opacity: 1;"/></g><g class="g-gtitle"><text class="gtitle" x="35" y="50" text-anchor="start" dy="0em" style="font-family: 'Open Sans', verdana, arial, sans-serif; font-size: 17px; fill: rgb(42, 63, 95); opacity: 1; font-weight: normal; white-space: pre;">Violencia LGBTQ+ en 2023</text></g><g class="g-xtitle"><text class="xtitle" x="312" y="460.3" text-anchor="middle" style="font-family: 'Open Sans', verdana, arial, sans-serif; font-size: 14px; fill: rgb(42, 63, 95); opacity: 1; font-weight: normal; white-space: pre;">Fecha</text></g><g class="g-ytitle"><text class="ytitle" transform="rotate(-90,47.059375,260)" x="47.059375" y="260" text-anchor="middle" style="font-family: 'Open Sans', verdana, arial, sans-serif; font-size: 14px; fill: rgb(42, 63, 95); opacity: 1; font-weight: normal; white-space: pre;">value</text></g></g></svg>