<svg class="main-svg" xmlns="http://www.w3.org/2000/svg" xmlns:xlink="http://www.w3.org/1999/xlink" width="700" height="500" style="" viewBox="0 0 700 500"><rect x="0" y="0" width="700" height="500" style="fill: rgb(0, 0, 0); fill-opacity: 0;"/><defs id="defs-d40405"><g class="clips"><clipPath id="clipd40405xyplot" class="plotclip"><rect width="464" height="320"/></clipPath><clipPath class="axesclip" id="clipd40405x"><rect x="80" y="0" width="464" height="500"/></clipPath><clipPath class="axesclip" id="clipd40405y"><rect x="0" y="100" width="700" height="320"/></clipPath><clipPath class="axesclip" id="clipd40405xy"><rect x="80" y="100" width="464" height="320"/></clipPath></g><g class="gradients"/><g class="patterns"/></defs><g class="bglayer"><rect class="bg" x="80" y="100" width="464" height="320" style="fill: rgb(0, 0, 0); fill-opacity: 0; stroke-width: 0;"/></g><g class="layer-below"><g class="imagelayer"/><g class="shapelayer"/></g><g class="cartesianlayer"><g class="subplot xy"><g class="layer-subplot"><g class="shapelayer"/><g class="imagelayer"/></g><g class="minor-gridlayer"><g class="x"/><g class="y"/></g><g class="gridlayer"><g class="x"><path class="xgrid crisp" transform="translate(156.26999999999998,0)" d="M0,100v320" style="stroke: rgb(255, 255, 255); stroke-opacity: 1; stroke-width: 1px;"/><path class="xgrid crisp" transform="translate(233.82,0)" d="M0,100v320" style="stroke: rgb(255, 255, 255); stroke-opacity: 1; stroke-width: 1px;"/><path class="xgrid crisp" transform="translate(311.36,0)" d="M0,100v320" style="stroke: rgb(255, 255, 255); stroke-opacity: 1; stroke-width: 1px;"/><path class="xgrid crisp" transform="translate(390.18,0)" d="M0,100v320" style="stroke: rgb(255, 255, 255); stroke-opacity: 1; stroke-width: 1px;"/><path class="xgrid crisp" transform="translate(467.73,0)" d="M0,100v320" style="stroke: rgb(255, 255, 255); stroke-opacity: 1; stroke-width: 1px;"/></g><g class="y"><path class="ygrid crisp" transform="translate(0,366.2)" d="M80,0h464" style="stroke: rgb(255, 255, 255); stroke-opacity: 1; stroke-width: 1px;"/><path class="ygrid crisp" transform="translate(0,328.33000000000004)" d="M80,0h464" style="stroke: rgb(255, 255, 255); stroke-opacity: 1; stroke-width: 1px;"/><path class="ygrid crisp" transform="translate(0,290.46000000000004)" d="M80,0h464" style="stroke: rgb(255, 255, 255); stroke-opacity: 1; stroke-width: 1px;"/><path class="ygrid crisp" transform="translate(0,252.58)" d="M80,0h464" style="stroke: rgb(255, 255, 255); stroke-opacity: 1; stroke-width: 1px;"/><path class="ygrid crisp" transform="translate(0,214.70999999999998)" d="M80,0h464" style="stroke: rgb(255, 255, 255); stroke-opacity: 1; stroke-width: 1px;"/><path class="ygrid crisp" transform="translate(0,176.82999999999998)" d="M80,0h464" style="stroke: rgb(255, 255, 255); stroke-opacity: 1; stroke-width: 1px;"/><path class="ygrid crisp" transform="translate(0,138.96)" d="M80,0h464" style="stroke: rgb(255, 255, 255); stroke-opacity: 1; stroke-width: 1px;"/><path class="ygrid crisp" transform="translate(0,101.09)" d="M80,0h464" style="stroke: rgb(255, 255, 255); stroke-opacity: 1; stroke-width: 1px;"/></g></g><g class="zerolinelayer"><path class="yzl zl crisp" transform="translate(0,404.08)" d="M80,0h464" style="stroke: rgb(255, 255, 255); stroke-opacity: 1; stroke-width: 2px;"/></g><path class="xlines-below"/><path class="ylines-below"/><g class="overlines-below"/><g class="xaxislayer-below"/><g class="yaxislayer-below"/><g class="overaxes-below"/><g class="plot" transform="translate(80,100)" clip-path="url(#clipd40405xyplot)"><g class="scatterlayer mlayer"><g class="trace scatter trace49907f" style="stroke-miterlimit: 2; opacity: 1;"><g class="fills"/><g class="errorbars"/><g class="lines"><path class="js-line" d="M0,152.58L1.27,152.58L2.54,243.48L3.81,188.94L5.08,212.57L6.36,267.48L7.63,243.99L8.9,280.04L10.17,249.01L11.44,282.05L12.71,204.37L13.98,218.75L15.25,269.94L16.53,290.42L17.8,253.17L19.07,238.26L20.34,277.75L21.61,293.55L22.88,254.42L24.15,238.76L25.42,141.61L26.7,193.64L27.97,214.45L29.24,268.23L30.51,289.74L31.78,252.89L33.05,238.15L34.32,277.71L35.59,293.53L36.87,299.86L38.14,256.94L39.41,285.22L40.68,296.53L43.22,193.79L44.49,259.96L45.76,286.43L47.04,297.02L48.31,210.36L49.58,221.14L50.85,270.9L52.12,199.91L53.39,171.51L54.66,251.05L55.93,282.87L57.21,159.25L58.48,246.14L59.75,235.46L61.02,276.63L62.29,247.65L63.56,281.51L64.83,204.15L66.1,264.11L67.38,288.09L68.65,297.68L69.92,165.17L71.19,203.07L72.46,263.67L73.73,287.92L75,297.61L76.27,256.04L77.55,239.41L78.82,278.21L80.09,293.73L82.63,193.35L83.9,214.34L85.17,177.28L86.44,207.91L87.72,265.61L88.99,16L90.26,188.85L91.53,257.98L92.8,194.74L94.07,214.89L95.34,268.4L96.61,289.81L97.88,298.37L99.16,256.35L100.43,239.54L101.7,187.36L102.97,211.94L104.24,221.77L105.51,271.16L106.78,200.01L108.05,217L109.33,223.8L110.6,181.07L111.87,254.87L113.14,148.05L114.41,196.22L115.68,260.93L116.95,241.37L118.22,278.99L119.5,294.04L120.77,254.62L122.04,284.29L123.31,296.16L124.58,300.91L125.85,257.36L127.12,285.39L128.39,296.6L129.67,301.09L132.21,303.6L133.48,303.89L134.75,304L136.02,258.6L137.29,194.99L138.56,214.99L139.84,268.44L141.11,198.93L142.38,262.02L143.65,287.25L144.92,297.35L146.19,255.94L147.46,239.37L148.73,278.19L150.01,293.72L151.28,299.94L152.55,256.97L153.82,285.23L155.09,296.54L156.36,210.17L157.63,221.06L158.9,270.87L160.18,290.79L161.45,253.32L162.72,283.77L163.99,295.95L166.53,302.78L167.8,258.11L169.07,194.79L170.35,260.36L171.62,104.8L172.89,178.92L174.16,163.12L175.43,247.69L176.7,281.52L177.97,295.06L179.24,255.02L180.52,284.45L181.79,296.23L183.06,210.04L184.33,266.46L185.6,289.03L186.87,252.61L188.14,238.04L189.41,232.21L190.68,275.33L191.96,247.13L193.23,281.3L194.5,294.97L195.77,254.98L197.04,284.44L198.31,296.22L199.58,300.93L200.85,257.37L202.13,285.39L203.4,296.6L205.94,193.8L207.21,214.52L208.48,222.81L209.75,226.12L211.02,182L212.3,28L213.57,148.2L214.84,150.83L216.11,60.98L217.38,115.94L218.65,228.82L219.92,273.98L221.19,246.59L222.47,281.08L223.74,294.88L225.01,118.6L226.28,184.44L227.55,210.77L228.82,84.96L230.09,170.98L231.36,69.05L232.64,210.06L233.91,221.02L235.18,225.41L237.72,227.86L238.99,273.59L240.26,200.99L241.53,262.84L242.81,287.58L244.08,161.13L245.35,201.45L246.62,172.13L247.89,205.85L249.16,219.34L250.43,179.28L251.7,208.71L252.98,220.48L254.25,270.64L255.52,290.7L256.79,207.83L258.06,265.58L259.33,288.68L260.6,297.92L261.87,301.61L264.42,130.98L265.69,98.49L266.96,221.84L268.23,271.18L269.5,245.47L270.77,280.63L272.04,249.25L273.32,282.15L274.59,249.86L275.86,236.94L277.13,231.77L278.4,275.16L279.67,201.61L280.94,172.19L282.21,251.32L283.48,192.08L284.76,259.28L286.03,240.71L287.3,278.73L288.57,293.94L289.84,254.57L291.11,284.27L292.38,296.16L293.65,255.46L294.93,193.73L296.2,214.49L297.47,177.35L298.74,207.94L300.01,174.72L301.28,206.89L302.55,219.75L303.82,179.45L305.1,254.23L306.37,193.24L307.64,214.29L308.91,40.92L310.18,198.81L311.45,171.08L312.72,159.98L313.99,155.54L315.27,153.77L316.54,198.5L317.81,261.85L319.08,241.74L320.35,279.14L321.62,294.1L322.89,254.64L324.16,147.96L325.44,105.28L326.71,179.11L327.98,208.64L329.25,220.45L330.52,225.18L331.79,272.52L333.06,246L334.33,280.85L335.61,249.34L336.88,282.18L338.15,295.32L339.42,300.57L340.69,257.23L341.96,239.89L343.23,278.4L344.5,293.81L345.78,299.97L347.05,211.54L348.32,176.16L349.59,207.46L350.86,219.98L352.13,224.99L353.4,226.99L354.67,182.35L355.95,164.49L357.22,248.24L358.49,190.85L359.76,167.89L361.03,204.15L362.3,218.66L363.57,269.91L364.84,244.96L366.12,189.53L367.39,258.26L368.66,149.4L369.93,151.31L371.2,197.52L372.47,170.56L373.74,114.32L375.01,228.18L376.28,182.82L377.56,210.13L378.83,175.6L380.1,207.24L381.37,265.34L382.64,197.69L383.91,216.07L385.18,268.87L386.45,199.1L387.73,216.64L389,269.1L390.27,199.19L391.54,171.23L392.81,160.04L395.35,262.85L396.62,242.14L397.9,188.4L399.17,257.81L400.44,240.12L401.71,233.05L402.98,275.66L404.25,247.26L405.52,235.9L406.79,231.36L408.07,274.99L409.34,292.44L410.61,208.53L411.88,265.86L413.15,152.44L414.42,243.42L415.69,279.82L416.96,294.37L418.24,254.75L419.51,284.34L420.78,296.18L422.05,255.47L423.32,284.63L424.59,205.4L425.86,219.16L427.13,88.32L429.68,251.38L430.95,283L432.22,204.75L433.49,218.9L436.03,117.74L437.3,229.54L438.58,183.37L439.85,255.79L441.12,284.76L442.39,205.45L443.66,264.63L444.93,197.4L446.2,125.06L447.47,96.13L448.75,175.45L450.02,161.73L452.56,154.05L453.83,244.06L455.1,280.07L456.37,294.47L457.64,254.79L458.92,284.36L460.19,296.19L461.46,119.13L462.73,230.1L464,274.48" style="vector-effect: none; fill: none; stroke: rgb(99, 110, 250); stroke-opacity: 1; stroke-width: 2px; opacity: 1;"/></g><g class="points"/><g class="text"/></g></g></g><g class="overplot"/><path class="xlines-above crisp" d="M0,0" style="fill: none;"/><path class="ylines-above crisp" d="M0,0" style="fill: none;"/><g class="overlines-above"/><g class="xaxislayer-above"><g class="xtick"><text text-anchor="middle" x="0" y="433" transform="translate(80,0)" style="font-family: 'Open Sans', verdana, arial, sans-serif; font-size: 12px; fill: rgb(42, 63, 95); fill-opacity: 1; white-space: pre; opacity: 1;">Jan 2020</text></g><g class="xtick"><text text-anchor="middle" x="0" y="433" style="font-family: 'Open Sans', verdana, arial, sans-serif; font-size: 12px; fill: rgb(42, 63, 95); fill-opacity: 1; white-space: pre; opacity: 1;" transform="translate(156.26999999999998,0)">Mar 2020</text></g><g class="xtick"><text text-anchor="middle" x="0" y="433" style="font-family: 'Open Sans', verdana, arial, sans-serif; font-size: 12px; fill: rgb(42, 63, 95); fill-opacity: 1; white-space: pre; opacity: 1;" transform="translate(233.82,0)">May 2020</text></g><g class="xtick"><text text-anchor="middle" x="0" y="433" style="font-family: 'Open Sans', verdana, arial, sans-serif; font-size: 12px; fill: rgb(42, 63, 95); fill-opacity: 1; white-space: pre; opacity: 1;" transform="translate(311.36,0)">Jul 2020</text></g><g class="xtick"><text text-anchor="middle" x="0" y="433" style="font-family: 'Open Sans', verdana, arial, sans-serif; font-size: 12px; fill: rgb(42, 63, 95); fill-opacity: 1; white-space: pre; opacity: 1;" transform="translate(390.18,0)">Sep 2020</text></g><g class="xtick"><text text-anchor="middle" x="0" y="433" style="font-family: 'Open Sans', verdana, arial, sans-serif; font-size: 12px; fill: rgb(42, 63, 95); fill-opacity: 1; white-space: pre; opacity: 1;" transform="translate(467.73,0)">Nov 2020</text></g></g><g class="yaxislayer-above"><g class="ytick"><text text-anchor="end" x="79" y="4.199999999999999" transform="translate(0,404.08)" style="font-family: 'Open Sans', verdana, arial, sans-serif; font-size: 12px; fill: rgb(42, 63, 95); fill-opacity: 1; white-space: pre; opacity: 1;">0</text></g><g class="ytick"><text text-anchor="end" x="79" y="4.199999999999999" style="font-family: 'Open Sans', verdana, arial, sans-serif; font-size: 12px; fill: rgb(42, 63, 95); fill-opacity: 1; white-space: pre; opacity: 1;" transform="translate(0,366.2)">0.5</text></g><g class="ytick"><text text-anchor="end" x="79" y="4.199999999999999" style="font-family: 'Open Sans', verdana, arial, sans-serif; font-size: 12px; fill: rgb(42, 63, 95); fill-opacity: 1; white-space: pre; opacity: 1;" transform="translate(0,328.33000000000004)">1</text></g><g class="ytick"><text text-anchor="end" x="79" y="4.199999999999999" style="font-family: 'Open Sans', verdana, arial, sans-serif; font-size: 12px; fill: rgb(42, 63, 95); fill-opacity: 1; white-space: pre; opacity: 1;" transform="translate(0,290.46000000000004)">1.5</text></g><g class="ytick"><text text-anchor="end" x="79" y="4.199999999999999" style="font-family: 'Open Sans', verdana, arial, sans-serif; font-size: 12px; fill: rgb(42, 63, 95); fill-opacity: 1; white-space: pre; opacity: 1;" transform="translate(0,252.58)">2</text></g><g class="ytick"><text text-anchor="end" x="79" y="4.199999999999999" style="font-family: 'Open Sans', verdana, arial, sans-serif; font-size: 12px; fill: rgb(42, 63, 95); fill-opacity: 1; white-space: pre; opacity: 1;" transform="translate(0,214.70999999999998)">2.5</text></g><g class="ytick"><text text-anchor="end" x="79" y="4.199999999999999" style="font-family: 'Open Sans', verdana, arial, sans-serif; font-size: 12px; fill: rgb(42, 63, 95); fill-opacity: 1; white-space: pre; opacity: 1;" transform="translate(0,176.82999999999998)">3</text></g><g class="ytick"><text text-anchor="end" x="79" y="4.199999999999999" style="font-family: 'Open Sans', verdana, arial, sans-serif; font-size: 12px; fill: rgb(42, 63, 95); fill-opacity: 1; white-space: pre; opacity: 1;" transform="translate(0,138.96)">3.5</text></g><g class="ytick"><text text-anchor="end" x="79" y="4.199999999999999" style="font-family: 'Open Sans', verdana, arial, sans-serif; font-size: 12px; fill: rgb(42, 63, 95); fill-opacity: 1; white-space: pre; opacity: 1;" transform="translate(0,101.09)">4</text></g></g><g class="overaxes-above"/></g></g><g class="polarlayer"/><g class="smithlayer"/><g class="ternarylayer"/><g class="geolayer"/><g class="funnelarealayer"/><g class="pielayer"/><g class="iciclelayer"/><g class="treemaplayer"/><g class="sunburstlayer"/><g class="glimages"/><defs id="topdefs-d40405"><g class="clips"/><clipPath id="legendd40405"><rect width="135" height="48" x="0" y="0"/></clipPath></defs><g class="layer-above"><g class="imagelayer"/><g class="shapelayer"/></g><g class="infolayer"><g class="legend" pointer-events="all" transform="translate(553.28,100)"><rect class="bg" shape-rendering="crispEdges" width="135" height="48" x="0" y="0" style="stroke: rgb(68, 68, 68); stroke-opacity: 1; fill: rgb(0, 0, 0); fill-opacity: 0; stroke-width: 0px;"/><g class="scrollbox" transform="" clip-path="url(#legendd40405)"><text class="legendtitletext" text-anchor="start" x="2" y="18.2" style="font-family: 'Open Sans', verdana, arial, sans-serif; font-size: 14px; fill: rgb(42, 63, 95); fill-opacity: 1; white-space: pre;">variable</text><g class="groups" transform=""><g class="traces" transform="translate(0,32.7)" style="opacity: 1;"><text class="legendtext" text-anchor="start" x="40" y="4.680000000000001" style="font-family: 'Open Sans', verdana, arial, sans-serif; font-size: 12px; fill: rgb(42, 63, 95); fill-opacity: 1; white-space: pre;">suavizado_exp</text><g class="layers" style="opacity: 1;"><g class="legendfill"/><g class="legendlines"><path class="js-line" d="M5,0h30" style="fill: none; stroke: rgb(99, 110, 250); stroke-opacity: 1; stroke-width: 2px;"/></g><g class="legendsymbols"><g class="legendpoints"/></g></g><rect class="legendtoggle" x="0" y="-9.5" width="129.515625" height="19" style="fill: rgb(0, 0, 0); fill-opacity: 0;"/></g></g></g><rect class="scrollbar" rx="20" ry="3" width="0" height="0" x="0" y="0" style="fill: rgb(128, 139, 164); fill-opacity: 1;"/></g><g class="g-gtitle"><text class="gtitle" x="35" y="50" text-anchor="start" dy="0em" style="font-family: 'Open Sans', verdana, arial, sans-serif; font-size: 17px; fill: rgb(42, 63, 95); opacity: 1; font-weight: normal; white-space: pre;">Violencia LGBTQ+ en 2020</text></g><g class="g-xtitle"><text class="xtitle" x="312" y="460.3" text-anchor="middle" style="font-family: 'Open Sans', verdana, arial, sans-serif; font-size: 14px; fill: rgb(42, 63, 95); opacity: 1; font-weight: normal; white-space: pre;">Fecha</text></g><g class="g-ytitle"><text class="ytitle" transform="rotate(-90,35.075,260)" x="35.075" y="260" text-anchor="middle" style="font-family: 'Open Sans', verdana, arial, sans-serif; font-size: 14px; fill: rgb(42, 63, 95); opacity: 1; font-weight: normal; white-space: pre;">value</text></g></g></svg>