<svg class="main-svg" xmlns="http://www.w3.org/2000/svg" xmlns:xlink="http://www.w3.org/1999/xlink" width="700" height="500" style="" viewBox="0 0 700 500"><rect x="0" y="0" width="700" height="500" style="fill: rgb(0, 0, 0); fill-opacity: 0;"/><defs id="defs-1cb52f"><g class="clips"><clipPath id="clip1cb52fxyplot" class="plotclip"><rect width="464" height="320"/></clipPath><clipPath class="axesclip" id="clip1cb52fx"><rect x="80" y="0" width="464" height="500"/></clipPath><clipPath class="axesclip" id="clip1cb52fy"><rect x="0" y="100" width="700" height="320"/></clipPath><clipPath class="axesclip" id="clip1cb52fxy"><rect x="80" y="100" width="464" height="320"/></clipPath></g><g class="gradients"/><g class="patterns"/></defs><g class="bglayer"><rect class="bg" x="80" y="100" width="464" height="320" style="fill: rgb(0, 0, 0); fill-opacity: 0; stroke-width: 0;"/></g><g class="layer-below"><g class="imagelayer"/><g class="shapelayer"/></g><g class="cartesianlayer"><g class="subplot xy"><g class="layer-subplot"><g class="shapelayer"/><g class="imagelayer"/></g><g class="minor-gridlayer"><g class="x"/><g class="y"/></g><g class="gridlayer"><g class="x"><path class="xgrid crisp" transform="translate(155.20999999999998,0)" d="M0,100v320" style="stroke: rgb(255, 255, 255); stroke-opacity: 1; stroke-width: 1px;"/><path class="xgrid crisp" transform="translate(232.97,0)" d="M0,100v320" style="stroke: rgb(255, 255, 255); stroke-opacity: 1; stroke-width: 1px;"/><path class="xgrid crisp" transform="translate(310.73,0)" d="M0,100v320" style="stroke: rgb(255, 255, 255); stroke-opacity: 1; stroke-width: 1px;"/><path class="xgrid crisp" transform="translate(389.76,0)" d="M0,100v320" style="stroke: rgb(255, 255, 255); stroke-opacity: 1; stroke-width: 1px;"/><path class="xgrid crisp" transform="translate(467.52,0)" d="M0,100v320" style="stroke: rgb(255, 255, 255); stroke-opacity: 1; stroke-width: 1px;"/></g><g class="y"><path class="ygrid crisp" transform="translate(0,322.84000000000003)" d="M80,0h464" style="stroke: rgb(255, 255, 255); stroke-opacity: 1; stroke-width: 1px;"/><path class="ygrid crisp" transform="translate(0,239.97)" d="M80,0h464" style="stroke: rgb(255, 255, 255); stroke-opacity: 1; stroke-width: 1px;"/><path class="ygrid crisp" transform="translate(0,157.1)" d="M80,0h464" style="stroke: rgb(255, 255, 255); stroke-opacity: 1; stroke-width: 1px;"/></g></g><g class="zerolinelayer"><path class="yzl zl crisp" transform="translate(0,405.71)" d="M80,0h464" style="stroke: rgb(255, 255, 255); stroke-opacity: 1; stroke-width: 2px;"/></g><path class="xlines-below"/><path class="ylines-below"/><g class="overlines-below"/><g class="xaxislayer-below"/><g class="yaxislayer-below"/><g class="overaxes-below"/><g class="plot" transform="translate(80,100)" clip-path="url(#clip1cb52fxyplot)"><g class="scatterlayer mlayer"><g class="trace scatter trace46c566" style="stroke-miterlimit: 2; opacity: 1;"><g class="fills"/><g class="errorbars"/><g class="lines"><path class="js-line" d="M0,222.84L1.27,222.84L2.55,272.56L3.82,222.84L5.1,262.62L6.37,268.58L7.65,261.03L8.92,258L10.2,276.68L11.47,294.1L12.75,271.23L14.02,222.31L15.3,242.52L16.57,280.43L17.85,275.71L19.12,253.93L20.4,275.06L21.67,273.56L22.95,263.02L24.22,288.63L25.49,298.88L26.77,263.2L28.04,268.82L30.59,271.96L31.87,282.27L33.14,276.44L34.42,294L35.69,301.03L36.97,303.84L38.24,295.02L39.52,301.43L40.79,304L42.07,295.08L43.34,271.63L44.62,292.08L45.89,300.26L47.16,283.64L48.44,286.94L49.71,278.31L50.99,264.92L52.26,269.5L54.81,272.07L56.09,292.26L57.36,290.38L58.64,279.69L59.91,295.3L61.19,281.66L62.46,266.26L63.74,260.1L66.29,294.43L67.56,281.31L68.84,295.95L70.11,291.86L72.66,289.57L73.93,279.37L75.21,255.4L76.48,255.75L77.76,285.73L79.03,247.99L80.31,232.9L81.58,266.64L82.86,270.19L84.13,281.56L85.41,256.27L86.68,246.16L87.96,252.06L89.23,244.47L91.78,291.93L93.05,260.42L94.33,257.76L95.6,246.75L96.88,232.41L98.15,236.61L99.43,248.24L100.7,252.89L101.98,284.58L103.25,267.43L104.53,290.4L105.8,299.59L107.08,283.37L108.35,286.83L109.63,288.21L110.9,268.88L112.18,281.03L113.45,285.9L114.73,277.9L116,254.81L117.27,285.35L118.55,287.62L119.82,288.53L121.1,269.01L122.37,281.08L123.65,256.08L124.92,275.91L126.2,283.85L127.47,277.08L128.75,264.42L130.02,259.36L131.3,237.45L132.57,268.46L133.85,201.31L136.4,281.05L137.67,275.96L138.95,293.81L140.22,281.06L141.49,275.96L142.77,283.87L144.04,247.25L145.32,282.33L147.87,288.05L149.14,268.81L150.42,241.23L151.69,269.97L154.24,220.44L155.52,271.6L156.79,272.18L158.07,262.46L159.34,268.52L160.62,261L161.89,257.99L163.16,236.9L164.44,278.19L165.71,264.87L166.99,259.54L168.26,237.52L172.09,268.73L173.36,251.14L174.64,273.94L175.91,253.22L177.19,225.05L178.46,223.72L181.01,270.72L182.29,261.88L183.56,258.34L184.84,276.82L187.38,273.24L188.66,282.78L189.93,296.54L191.21,292.1L192.48,290.32L193.76,279.67L195.03,265.46L196.31,239.89L197.58,269.44L198.86,281.26L200.13,276.04L201.41,283.9L202.68,287.04L203.96,268.41L205.23,290.79L206.51,259.96L207.78,267.52L209.05,280.49L210.33,285.68L211.6,267.86L214.15,271.81L215.43,252.37L216.7,254.54L217.98,265.35L219.25,289.57L220.53,269.42L221.8,281.25L223.08,266.09L224.35,240.14L225.63,259.59L228.18,294.35L229.45,281.28L230.73,276.05L232,264.01L234.55,271.19L235.82,252.13L237.1,264.39L238.37,249.4L240.92,241.01L242.2,210.22L244.75,278.5L246.02,255.05L247.3,265.56L248.57,269.76L251.12,234.33L252.4,277.16L253.67,294.29L254.95,251.42L256.22,244.22L257.49,241.34L258.77,260.07L260.04,237.73L261.32,268.58L262.59,261.02L263.87,178.45L265.14,244.86L267.69,254.21L268.97,275.17L270.24,263.66L271.52,199.39L274.07,280.74L275.34,265.89L276.62,250L277.89,263.54L279.16,268.95L280.44,281.06L281.71,295.85L282.99,232.16L284.26,256.4L285.54,226.32L288.09,275.11L289.36,223.86L290.64,272.97L291.91,262.78L293.19,218.93L294.46,221.27L295.74,242.1L297.01,280.27L299.56,249.93L300.84,263.51L302.11,249.05L303.38,263.16L304.66,258.86L305.93,277.02L309.76,298.31L311.03,253.03L312.31,254.8L313.58,265.46L314.86,279.67L316.13,285.35L317.41,297.57L318.68,292.51L319.96,290.49L321.23,279.73L322.51,215.76L323.78,249.84L325.05,253.53L326.33,264.95L327.6,249.63L328.88,223.61L330.15,223.15L331.43,242.85L332.7,260.68L333.98,267.81L335.25,260.72L336.53,257.88L337.8,187.13L339.08,198.61L340.35,233.04L341.63,236.86L342.9,278.17L344.18,274.81L345.45,253.57L346.73,274.91L348,273.5L349.27,282.88L350.55,296.58L351.82,302.06L353.1,284.36L354.37,277.28L355.65,264.51L356.92,269.34L358.2,271.27L359.47,252.16L362.02,241.45L363.3,270.06L365.85,272.16L367.12,222.68L368.4,242.67L369.67,230.77L370.95,255.85L372.22,255.93L373.49,226.13L374.77,234.1L376.04,237.29L377.32,278.34L378.59,274.87L379.87,253.6L381.14,245.09L382.42,261.57L383.69,258.22L384.97,276.77L386.24,264.3L387.52,239.42L388.79,189.7L390.07,199.64L391.34,213.56L392.62,149.52L393.89,223.34L395.16,242.93L396.44,280.6L397.71,245.94L400.26,192.73L401.54,240.63L402.81,269.73L404.09,271.43L405.36,272.11L406.64,242.55L407.91,240.67L409.19,190.19L411.74,255.41L413.01,275.64L414.29,243.96L415.56,261.12L418.11,270.73L419.38,271.83L420.66,252.38L421.93,274.43L423.21,293.2L424.48,280.82L425.76,295.75L427.03,162.5L428.31,178.82L429.58,205.23L430.86,255.57L432.13,275.71L433.41,283.77L434.68,267.1L435.96,220.65L437.23,231.91L438.51,246.36L439.78,272.02L441.05,292.24L442.33,280.43L444.88,208.19L446.15,216.98L447.43,210.55L448.7,257.7L451.25,232.4L452.53,216.72L453.8,111L455.08,128.38L456.35,16L457.63,120.21L458.9,221.57L460.18,232.28L461.45,216.67L462.73,240.26L464,259.64" style="vector-effect: none; fill: none; stroke: rgb(99, 110, 250); stroke-opacity: 1; stroke-width: 2px; opacity: 1;"/></g><g class="points"/><g class="text"/></g></g></g><g class="overplot"/><path class="xlines-above crisp" d="M0,0" style="fill: none;"/><path class="ylines-above crisp" d="M0,0" style="fill: none;"/><g class="overlines-above"/><g class="xaxislayer-above"><g class="xtick"><text text-anchor="middle" x="0" y="433" transform="translate(80,0)" style="font-family: 'Open Sans', verdana, arial, sans-serif; font-size: 12px; fill: rgb(42, 63, 95); fill-opacity: 1; white-space: pre; opacity: 1;">Jan 2022</text></g><g class="xtick"><text text-anchor="middle" x="0" y="433" style="font-family: 'Open Sans', verdana, arial, sans-serif; font-size: 12px; fill: rgb(42, 63, 95); fill-opacity: 1; white-space: pre; opacity: 1;" transform="translate(155.20999999999998,0)">Mar 2022</text></g><g class="xtick"><text text-anchor="middle" x="0" y="433" style="font-family: 'Open Sans', verdana, arial, sans-serif; font-size: 12px; fill: rgb(42, 63, 95); fill-opacity: 1; white-space: pre; opacity: 1;" transform="translate(232.97,0)">May 2022</text></g><g class="xtick"><text text-anchor="middle" x="0" y="433" style="font-family: 'Open Sans', verdana, arial, sans-serif; font-size: 12px; fill: rgb(42, 63, 95); fill-opacity: 1; white-space: pre; opacity: 1;" transform="translate(310.73,0)">Jul 2022</text></g><g class="xtick"><text text-anchor="middle" x="0" y="433" style="font-family: 'Open Sans', verdana, arial, sans-serif; font-size: 12px; fill: rgb(42, 63, 95); fill-opacity: 1; white-space: pre; opacity: 1;" transform="translate(389.76,0)">Sep 2022</text></g><g class="xtick"><text text-anchor="middle" x="0" y="433" style="font-family: 'Open Sans', verdana, arial, sans-serif; font-size: 12px; fill: rgb(42, 63, 95); fill-opacity: 1; white-space: pre; opacity: 1;" transform="translate(467.52,0)">Nov 2022</text></g></g><g class="yaxislayer-above"><g class="ytick"><text text-anchor="end" x="79" y="4.199999999999999" transform="translate(0,405.71)" style="font-family: 'Open Sans', verdana, arial, sans-serif; font-size: 12px; fill: rgb(42, 63, 95); fill-opacity: 1; white-space: pre; opacity: 1;">0</text></g><g class="ytick"><text text-anchor="end" x="79" y="4.199999999999999" style="font-family: 'Open Sans', verdana, arial, sans-serif; font-size: 12px; fill: rgb(42, 63, 95); fill-opacity: 1; white-space: pre; opacity: 1;" transform="translate(0,322.84000000000003)">5</text></g><g class="ytick"><text text-anchor="end" x="79" y="4.199999999999999" style="font-family: 'Open Sans', verdana, arial, sans-serif; font-size: 12px; fill: rgb(42, 63, 95); fill-opacity: 1; white-space: pre; opacity: 1;" transform="translate(0,239.97)">10</text></g><g class="ytick"><text text-anchor="end" x="79" y="4.199999999999999" style="font-family: 'Open Sans', verdana, arial, sans-serif; font-size: 12px; fill: rgb(42, 63, 95); fill-opacity: 1; white-space: pre; opacity: 1;" transform="translate(0,157.1)">15</text></g></g><g class="overaxes-above"/></g></g><g class="polarlayer"/><g class="smithlayer"/><g class="ternarylayer"/><g class="geolayer"/><g class="funnelarealayer"/><g class="pielayer"/><g class="iciclelayer"/><g class="treemaplayer"/><g class="sunburstlayer"/><g class="glimages"/><defs id="topdefs-1cb52f"><g class="clips"/><clipPath id="legend1cb52f"><rect width="135" height="48" x="0" y="0"/></clipPath></defs><g class="layer-above"><g class="imagelayer"/><g class="shapelayer"/></g><g class="infolayer"><g class="legend" pointer-events="all" transform="translate(553.28,100)"><rect class="bg" shape-rendering="crispEdges" width="135" height="48" x="0" y="0" style="stroke: rgb(68, 68, 68); stroke-opacity: 1; fill: rgb(0, 0, 0); fill-opacity: 0; stroke-width: 0px;"/><g class="scrollbox" transform="" clip-path="url(#legend1cb52f)"><text class="legendtitletext" text-anchor="start" x="2" y="18.2" style="font-family: 'Open Sans', verdana, arial, sans-serif; font-size: 14px; fill: rgb(42, 63, 95); fill-opacity: 1; white-space: pre;">variable</text><g class="groups" transform=""><g class="traces" transform="translate(0,32.7)" style="opacity: 1;"><text class="legendtext" text-anchor="start" x="40" y="4.680000000000001" style="font-family: 'Open Sans', verdana, arial, sans-serif; font-size: 12px; fill: rgb(42, 63, 95); fill-opacity: 1; white-space: pre;">suavizado_exp</text><g class="layers" style="opacity: 1;"><g class="legendfill"/><g class="legendlines"><path class="js-line" d="M5,0h30" style="fill: none; stroke: rgb(99, 110, 250); stroke-opacity: 1; stroke-width: 2px;"/></g><g class="legendsymbols"><g class="legendpoints"/></g></g><rect class="legendtoggle" x="0" y="-9.5" width="129.515625" height="19" style="fill: rgb(0, 0, 0); fill-opacity: 0;"/></g></g></g><rect class="scrollbar" rx="20" ry="3" width="0" height="0" x="0" y="0" style="fill: rgb(128, 139, 164); fill-opacity: 1;"/></g><g class="g-gtitle"><text class="gtitle" x="35" y="50" text-anchor="start" dy="0em" style="font-family: 'Open Sans', verdana, arial, sans-serif; font-size: 17px; fill: rgb(42, 63, 95); opacity: 1; font-weight: normal; white-space: pre;">Violencia LGBTQ+ en 2022</text></g><g class="g-xtitle"><text class="xtitle" x="312" y="460.3" text-anchor="middle" style="font-family: 'Open Sans', verdana, arial, sans-serif; font-size: 14px; fill: rgb(42, 63, 95); opacity: 1; font-weight: normal; white-space: pre;">Fecha</text></g><g class="g-ytitle"><text class="ytitle" transform="rotate(-90,39.434375,260)" x="39.434375" y="260" text-anchor="middle" style="font-family: 'Open Sans', verdana, arial, sans-serif; font-size: 14px; fill: rgb(42, 63, 95); opacity: 1; font-weight: normal; white-space: pre;">value</text></g></g></svg>