<svg class="main-svg" xmlns="http://www.w3.org/2000/svg" xmlns:xlink="http://www.w3.org/1999/xlink" width="700" height="500" style="" viewBox="0 0 700 500"><rect x="0" y="0" width="700" height="500" style="fill: rgb(0, 0, 0); fill-opacity: 0;"/><defs id="defs-b93564"><g class="clips"><clipPath id="clipb93564xyplot" class="plotclip"><rect width="540" height="320"/></clipPath><clipPath class="axesclip" id="clipb93564x"><rect x="80" y="0" width="540" height="500"/></clipPath><clipPath class="axesclip" id="clipb93564y"><rect x="0" y="100" width="700" height="320"/></clipPath><clipPath class="axesclip" id="clipb93564xy"><rect x="80" y="100" width="540" height="320"/></clipPath></g><g class="gradients"/><g class="patterns"/></defs><g class="bglayer"><rect class="bg" x="80" y="100" width="540" height="320" style="fill: rgb(0, 0, 0); fill-opacity: 0; stroke-width: 0;"/></g><g class="layer-below"><g class="imagelayer"/><g class="shapelayer"/></g><g class="cartesianlayer"><g class="subplot xy"><g class="layer-subplot"><g class="shapelayer"/><g class="imagelayer"/></g><g class="minor-gridlayer"><g class="x"/><g class="y"/></g><g class="gridlayer"><g class="x"><path class="xgrid crisp" transform="translate(167.53,0)" d="M0,100v320" style="stroke: rgb(255, 255, 255); stroke-opacity: 1; stroke-width: 1px;"/><path class="xgrid crisp" transform="translate(258.02,0)" d="M0,100v320" style="stroke: rgb(255, 255, 255); stroke-opacity: 1; stroke-width: 1px;"/><path class="xgrid crisp" transform="translate(348.52,0)" d="M0,100v320" style="stroke: rgb(255, 255, 255); stroke-opacity: 1; stroke-width: 1px;"/><path class="xgrid crisp" transform="translate(440.49,0)" d="M0,100v320" style="stroke: rgb(255, 255, 255); stroke-opacity: 1; stroke-width: 1px;"/><path class="xgrid crisp" transform="translate(530.99,0)" d="M0,100v320" style="stroke: rgb(255, 255, 255); stroke-opacity: 1; stroke-width: 1px;"/></g><g class="y"><path class="ygrid crisp" transform="translate(0,356)" d="M80,0h540" style="stroke: rgb(255, 255, 255); stroke-opacity: 1; stroke-width: 1px;"/><path class="ygrid crisp" transform="translate(0,308)" d="M80,0h540" style="stroke: rgb(255, 255, 255); stroke-opacity: 1; stroke-width: 1px;"/><path class="ygrid crisp" transform="translate(0,260)" d="M80,0h540" style="stroke: rgb(255, 255, 255); stroke-opacity: 1; stroke-width: 1px;"/><path class="ygrid crisp" transform="translate(0,212)" d="M80,0h540" style="stroke: rgb(255, 255, 255); stroke-opacity: 1; stroke-width: 1px;"/><path class="ygrid crisp" transform="translate(0,164)" d="M80,0h540" style="stroke: rgb(255, 255, 255); stroke-opacity: 1; stroke-width: 1px;"/><path class="ygrid crisp" transform="translate(0,116)" d="M80,0h540" style="stroke: rgb(255, 255, 255); stroke-opacity: 1; stroke-width: 1px;"/></g></g><g class="zerolinelayer"><path class="yzl zl crisp" transform="translate(0,404)" d="M80,0h540" style="stroke: rgb(255, 255, 255); stroke-opacity: 1; stroke-width: 2px;"/></g><path class="xlines-below"/><path class="ylines-below"/><g class="overlines-below"/><g class="xaxislayer-below"/><g class="yaxislayer-below"/><g class="overaxes-below"/><g class="plot" transform="translate(80,100)" clip-path="url(#clipb93564xyplot)"><g class="scatterlayer mlayer"><g class="trace scatter trace7bf47a" style="stroke-miterlimit: 2; opacity: 1;"><g class="fills"/><g class="errorbars"/><g class="lines"><path class="js-line" d="M0,304L8.9,304L10.38,16L11.87,304L13.35,304L14.84,304L16.32,208L17.8,208L19.29,304L20.77,304L22.25,208L23.74,208L25.22,304L26.7,112L28.19,208L29.67,304L31.15,304L32.64,112L34.12,304L35.6,208L37.09,208L38.57,304L40.05,304L41.54,304L43.02,208L44.51,112L45.99,304L47.47,208L48.96,208L50.44,304L51.92,304L54.89,304L56.37,208L57.86,112L59.34,208L60.82,208L62.31,304L63.79,304L65.27,112L66.76,16L68.24,304L78.63,304L80.11,208L81.59,304L83.08,304L86.04,304L87.53,208L89.01,304L90.49,304L91.98,304L93.46,208L96.43,208L97.91,112L99.4,304L100.88,112L102.36,304L103.85,208L105.33,304L106.81,208L108.3,112L109.78,208L111.26,304L112.75,304L114.23,304L115.71,112L117.2,304L118.68,208L120.16,304L121.65,208L123.13,304L124.62,304L126.1,208L127.58,304L129.07,304L130.55,112L132.03,304L133.52,304L139.45,304L140.93,208L142.42,304L143.9,304L145.38,304L146.87,208L148.35,304L149.84,208L151.32,304L152.8,208L155.77,208L157.25,304L158.74,208L160.22,304L169.12,304L170.6,208L172.09,304L173.57,304L175.05,304L176.54,208L178.02,304L179.51,208L180.99,208L182.47,304L183.96,208L185.44,304L186.92,304L188.41,208L189.89,304L191.37,208L192.86,208L194.34,304L195.82,208L197.31,304L198.79,304L200.27,16L201.76,304L203.24,304L206.21,112L207.69,304L209.18,208L210.66,304L212.14,304L213.63,208L215.11,208L216.59,304L218.08,112L219.56,304L222.53,304L224.01,208L225.49,304L226.98,208L228.46,208L229.95,304L231.43,304L232.91,208L234.4,304L235.88,304L237.36,208L238.85,304L240.33,208L241.81,304L255.16,304L256.65,208L258.13,304L259.62,112L261.1,304L262.58,304L264.07,304L265.55,112L267.03,304L268.52,304L272.97,304L274.45,208L278.9,208L280.38,304L281.87,112L283.35,304L284.84,112L286.32,304L287.8,208L289.29,208L290.77,304L292.25,304L293.74,208L295.22,304L296.7,208L298.19,304L299.67,112L301.15,304L302.64,208L304.12,304L310.05,304L311.54,208L313.02,304L314.51,208L315.99,208L317.47,304L318.96,304L320.44,208L321.92,304L323.41,304L324.89,304L326.37,112L327.86,16L329.34,304L330.82,304L332.31,208L333.79,208L335.27,112L336.76,112L338.24,208L339.73,304L341.21,112L342.69,304L344.18,304L347.14,304L348.63,208L350.11,304L351.59,304L353.08,208L354.56,304L357.53,112L359.01,208L360.49,304L361.98,304L363.46,304L364.95,208L367.91,16L369.4,304L372.36,304L373.85,208L376.81,208L378.3,304L379.78,304L381.26,208L382.75,304L384.23,304L385.71,304L387.2,16L388.68,16L390.16,304L391.65,208L393.13,304L394.62,304L396.1,208L397.58,304L399.07,208L400.55,304L402.03,208L403.52,304L405,304L406.48,208L407.97,304L409.45,208L410.93,208L412.42,304L413.9,208L415.38,304L416.87,208L418.35,304L419.84,304L422.8,304L424.29,112L425.77,208L427.25,208L428.74,304L430.22,208L433.19,208L434.67,304L437.64,304L439.12,208L440.6,112L442.09,304L449.51,304L450.99,112L452.47,304L453.96,304L455.44,208L456.92,304L459.89,112L461.37,304L467.31,304L468.79,208L470.27,304L471.76,304L477.69,304L479.18,208L480.66,208L482.14,112L483.63,304L485.11,208L486.59,304L488.08,208L489.56,304L491.04,304L495.49,304L496.98,112L499.95,304L501.43,112L502.91,304L504.4,208L505.88,304L507.36,304L508.85,112L510.33,304L511.81,208L513.3,304L517.75,304L519.23,208L520.71,112L522.2,304L528.13,304L529.62,112L531.1,16L532.58,208L534.07,304L535.55,304L537.03,304L538.52,208L540,208" style="vector-effect: none; fill: none; stroke: rgb(99, 110, 250); stroke-opacity: 1; stroke-width: 2px; opacity: 1;"/></g><g class="points"/><g class="text"/></g></g></g><g class="overplot"/><path class="xlines-above crisp" d="M0,0" style="fill: none;"/><path class="ylines-above crisp" d="M0,0" style="fill: none;"/><g class="overlines-above"/><g class="xaxislayer-above"><g class="xtick"><text text-anchor="middle" x="0" y="433" transform="translate(80,0)" style="font-family: 'Open Sans', verdana, arial, sans-serif; font-size: 12px; fill: rgb(42, 63, 95); fill-opacity: 1; white-space: pre; opacity: 1;">Jan 2019</text></g><g class="xtick"><text text-anchor="middle" x="0" y="433" style="font-family: 'Open Sans', verdana, arial, sans-serif; font-size: 12px; fill: rgb(42, 63, 95); fill-opacity: 1; white-space: pre; opacity: 1;" transform="translate(167.53,0)">Mar 2019</text></g><g class="xtick"><text text-anchor="middle" x="0" y="433" style="font-family: 'Open Sans', verdana, arial, sans-serif; font-size: 12px; fill: rgb(42, 63, 95); fill-opacity: 1; white-space: pre; opacity: 1;" transform="translate(258.02,0)">May 2019</text></g><g class="xtick"><text text-anchor="middle" x="0" y="433" style="font-family: 'Open Sans', verdana, arial, sans-serif; font-size: 12px; fill: rgb(42, 63, 95); fill-opacity: 1; white-space: pre; opacity: 1;" transform="translate(348.52,0)">Jul 2019</text></g><g class="xtick"><text text-anchor="middle" x="0" y="433" style="font-family: 'Open Sans', verdana, arial, sans-serif; font-size: 12px; fill: rgb(42, 63, 95); fill-opacity: 1; white-space: pre; opacity: 1;" transform="translate(440.49,0)">Sep 2019</text></g><g class="xtick"><text text-anchor="middle" x="0" y="433" style="font-family: 'Open Sans', verdana, arial, sans-serif; font-size: 12px; fill: rgb(42, 63, 95); fill-opacity: 1; white-space: pre; opacity: 1;" transform="translate(530.99,0)">Nov 2019</text></g></g><g class="yaxislayer-above"><g class="ytick"><text text-anchor="end" x="79" y="4.199999999999999" transform="translate(0,404)" style="font-family: 'Open Sans', verdana, arial, sans-serif; font-size: 12px; fill: rgb(42, 63, 95); fill-opacity: 1; white-space: pre; opacity: 1;">0</text></g><g class="ytick"><text text-anchor="end" x="79" y="4.199999999999999" style="font-family: 'Open Sans', verdana, arial, sans-serif; font-size: 12px; fill: rgb(42, 63, 95); fill-opacity: 1; white-space: pre; opacity: 1;" transform="translate(0,356)">0.5</text></g><g class="ytick"><text text-anchor="end" x="79" y="4.199999999999999" style="font-family: 'Open Sans', verdana, arial, sans-serif; font-size: 12px; fill: rgb(42, 63, 95); fill-opacity: 1; white-space: pre; opacity: 1;" transform="translate(0,308)">1</text></g><g class="ytick"><text text-anchor="end" x="79" y="4.199999999999999" style="font-family: 'Open Sans', verdana, arial, sans-serif; font-size: 12px; fill: rgb(42, 63, 95); fill-opacity: 1; white-space: pre; opacity: 1;" transform="translate(0,260)">1.5</text></g><g class="ytick"><text text-anchor="end" x="79" y="4.199999999999999" style="font-family: 'Open Sans', verdana, arial, sans-serif; font-size: 12px; fill: rgb(42, 63, 95); fill-opacity: 1; white-space: pre; opacity: 1;" transform="translate(0,212)">2</text></g><g class="ytick"><text text-anchor="end" x="79" y="4.199999999999999" style="font-family: 'Open Sans', verdana, arial, sans-serif; font-size: 12px; fill: rgb(42, 63, 95); fill-opacity: 1; white-space: pre; opacity: 1;" transform="translate(0,164)">2.5</text></g><g class="ytick"><text text-anchor="end" x="79" y="4.199999999999999" style="font-family: 'Open Sans', verdana, arial, sans-serif; font-size: 12px; fill: rgb(42, 63, 95); fill-opacity: 1; white-space: pre; opacity: 1;" transform="translate(0,116)">3</text></g></g><g class="overaxes-above"/></g></g><g class="polarlayer"/><g class="smithlayer"/><g class="ternarylayer"/><g class="geolayer"/><g class="funnelarealayer"/><g class="pielayer"/><g class="iciclelayer"/><g class="treemaplayer"/><g class="sunburstlayer"/><g class="glimages"/><defs id="topdefs-b93564"><g class="clips"/></defs><g class="layer-above"><g class="imagelayer"/><g class="shapelayer"/></g><g class="infolayer"><g class="g-gtitle"><text class="gtitle" x="35" y="50" text-anchor="start" dy="0em" style="font-family: 'Open Sans', verdana, arial, sans-serif; font-size: 17px; fill: rgb(42, 63, 95); opacity: 1; font-weight: normal; white-space: pre;">Violencia LGBTQ+ en 2019</text></g><g class="g-xtitle"><text class="xtitle" x="350" y="460.3" text-anchor="middle" style="font-family: 'Open Sans', verdana, arial, sans-serif; font-size: 14px; fill: rgb(42, 63, 95); opacity: 1; font-weight: normal; white-space: pre;">Fecha</text></g><g class="g-ytitle"><text class="ytitle" transform="rotate(-90,35.075,260)" x="35.075" y="260" text-anchor="middle" style="font-family: 'Open Sans', verdana, arial, sans-serif; font-size: 14px; fill: rgb(42, 63, 95); opacity: 1; font-weight: normal; white-space: pre;">Total</text></g></g></svg>