<svg class="main-svg" xmlns="http://www.w3.org/2000/svg" xmlns:xlink="http://www.w3.org/1999/xlink" width="700" height="500" style="" viewBox="0 0 700 500"><rect x="0" y="0" width="700" height="500" style="fill: rgb(0, 0, 0); fill-opacity: 0;"/><defs id="defs-162927"><g class="clips"><clipPath id="clip162927xyplot" class="plotclip"><rect width="464" height="320"/></clipPath><clipPath class="axesclip" id="clip162927x"><rect x="80" y="0" width="464" height="500"/></clipPath><clipPath class="axesclip" id="clip162927y"><rect x="0" y="100" width="700" height="320"/></clipPath><clipPath class="axesclip" id="clip162927xy"><rect x="80" y="100" width="464" height="320"/></clipPath></g><g class="gradients"/><g class="patterns"/></defs><g class="bglayer"><rect class="bg" x="80" y="100" width="464" height="320" style="fill: rgb(0, 0, 0); fill-opacity: 0; stroke-width: 0;"/></g><g class="layer-below"><g class="imagelayer"/><g class="shapelayer"/></g><g class="cartesianlayer"><g class="subplot xy"><g class="layer-subplot"><g class="shapelayer"/><g class="imagelayer"/></g><g class="minor-gridlayer"><g class="x"/><g class="y"/></g><g class="gridlayer"><g class="x"><path class="xgrid crisp" transform="translate(155.20999999999998,0)" d="M0,100v320" style="stroke: rgb(255, 255, 255); stroke-opacity: 1; stroke-width: 1px;"/><path class="xgrid crisp" transform="translate(232.97,0)" d="M0,100v320" style="stroke: rgb(255, 255, 255); stroke-opacity: 1; stroke-width: 1px;"/><path class="xgrid crisp" transform="translate(310.73,0)" d="M0,100v320" style="stroke: rgb(255, 255, 255); stroke-opacity: 1; stroke-width: 1px;"/><path class="xgrid crisp" transform="translate(389.76,0)" d="M0,100v320" style="stroke: rgb(255, 255, 255); stroke-opacity: 1; stroke-width: 1px;"/><path class="xgrid crisp" transform="translate(467.52,0)" d="M0,100v320" style="stroke: rgb(255, 255, 255); stroke-opacity: 1; stroke-width: 1px;"/></g><g class="y"><path class="ygrid crisp" transform="translate(0,325.03)" d="M80,0h464" style="stroke: rgb(255, 255, 255); stroke-opacity: 1; stroke-width: 1px;"/><path class="ygrid crisp" transform="translate(0,246.07)" d="M80,0h464" style="stroke: rgb(255, 255, 255); stroke-opacity: 1; stroke-width: 1px;"/><path class="ygrid crisp" transform="translate(0,167.1)" d="M80,0h464" style="stroke: rgb(255, 255, 255); stroke-opacity: 1; stroke-width: 1px;"/></g></g><g class="zerolinelayer"><path class="yzl zl crisp" transform="translate(0,404)" d="M80,0h464" style="stroke: rgb(255, 255, 255); stroke-opacity: 1; stroke-width: 2px;"/></g><path class="xlines-below"/><path class="ylines-below"/><g class="overlines-below"/><g class="xaxislayer-below"/><g class="yaxislayer-below"/><g class="overaxes-below"/><g class="plot" transform="translate(80,100)" clip-path="url(#clip162927xyplot)"><g class="scatterlayer mlayer"><g class="trace scatter tracec33486" style="stroke-miterlimit: 2; opacity: 1;"><g class="fills"/><g class="errorbars"/><g class="lines"><path class="js-line" d="M0,146.07L1.27,146.07L2.55,240.83L3.82,278.73L5.1,293.89L6.37,299.96L7.65,302.38L10.2,303.74L11.47,209.14L12.75,266.06L14.02,288.82L15.3,203.17L16.57,263.67L17.85,287.87L19.12,297.55L21.67,302.97L22.95,303.59L25.49,303.93L26.77,209.22L28.04,266.09L29.32,288.83L30.59,297.93L31.87,301.57L34.42,303.61L35.69,303.84L47.16,304L48.44,304L56.09,304L57.36,209.24L58.64,266.1L59.91,288.84L61.19,297.94L62.46,112.06L63.74,227.22L65.01,178.53L66.29,253.81L67.56,283.93L68.84,295.97L70.11,300.79L72.66,303.49L73.93,303.79L75.21,303.92L76.48,209.21L77.76,266.08L79.03,288.83L80.31,297.93L81.58,301.57L84.13,303.61L85.41,303.84L94.33,304L95.6,114.48L96.88,38.68L98.15,197.87L99.43,261.55L100.7,287.02L101.98,297.21L103.25,301.28L105.8,303.57L107.08,303.83L113.45,304L114.73,209.24L116,266.1L117.27,288.84L118.55,297.94L119.82,301.57L122.37,303.61L123.65,303.84L130.02,304L131.3,209.24L132.57,266.1L133.85,288.84L135.12,297.94L136.4,301.57L137.67,303.03L138.95,208.85L140.22,265.94L141.49,288.78L142.77,297.91L144.04,301.56L146.59,303.61L147.87,303.84L159.34,304L160.62,304L161.89,304L163.16,209.24L164.44,171.34L165.71,250.94L166.99,188.02L168.26,257.61L169.54,285.44L170.81,296.58L172.09,301.03L173.36,208.05L174.64,265.62L175.91,288.65L177.19,297.86L178.46,301.54L179.74,303.02L181.01,208.85L182.29,265.94L183.56,288.78L184.84,297.91L186.11,206.81L187.38,265.12L188.66,288.45L189.93,297.78L191.21,301.51L192.48,303L193.76,208.84L195.03,265.94L196.31,288.78L197.58,297.91L198.86,301.56L201.41,303.61L202.68,209.09L203.96,266.03L205.23,288.81L206.51,297.93L207.78,301.57L209.05,303.03L210.33,114.1L211.6,228.04L212.88,84.1L214.15,216.04L215.43,268.82L216.7,289.93L217.98,298.37L219.25,301.75L220.53,208.34L221.8,265.74L223.08,288.69L224.35,297.88L225.63,301.55L226.9,303.02L228.18,208.85L229.45,265.94L230.73,288.78L232,297.91L233.27,301.56L235.82,303.61L237.1,303.84L244.75,304L246.02,209.24L247.3,171.34L248.57,250.94L249.85,282.77L251.12,295.51L253.67,302.64L254.95,208.7L256.22,171.12L257.49,250.85L258.77,187.98L260.04,257.59L261.32,285.44L262.59,296.57L265.14,302.81L266.42,303.52L271.52,303.99L272.79,304L277.89,304L279.16,209.24L280.44,266.1L281.71,288.84L282.99,297.94L284.26,301.57L286.81,303.61L288.09,303.84L290.64,303.98L291.91,19.72L293.19,95.53L294.46,220.61L295.74,270.64L297.01,290.66L298.29,203.91L299.56,263.96L300.84,287.98L302.11,297.59L304.66,302.98L305.93,303.59L311.03,303.99L312.31,304L317.41,304L318.68,114.48L319.96,228.19L321.23,273.68L322.51,291.87L323.78,204.39L325.05,264.16L326.33,193.3L327.6,259.72L328.88,286.29L330.15,296.92L331.43,301.17L333.98,303.55L335.25,303.82L342.9,304L344.18,209.24L345.45,266.1L346.73,288.84L348,203.18L349.27,263.67L350.55,193.11L351.82,259.64L353.1,286.26L354.37,296.9L356.92,302.86L358.2,303.55L359.47,209.06L360.75,171.27L362.02,250.91L363.3,282.76L364.57,295.51L365.85,300.6L368.4,303.46L369.67,303.78L370.95,19.64L372.22,95.5L373.49,220.6L374.77,270.64L376.04,290.66L377.32,298.66L379.87,303.15L381.14,303.66L386.24,303.99L387.52,209.24L388.79,266.1L390.07,288.84L391.34,203.18L392.62,263.67L393.89,287.87L395.16,297.55L396.44,111.9L397.71,37.65L398.99,102.7L400.26,223.48L401.54,177.03L402.81,158.46L404.09,245.78L405.36,280.71L406.64,294.69L407.91,16L409.19,188.8L410.46,163.16L411.74,58.15L413.01,205.66L414.29,264.66L415.56,288.27L416.84,297.71L418.11,301.48L419.38,302.99L420.66,208.84L421.93,265.94L423.21,288.77L424.48,297.91L425.76,206.81L427.03,170.36L428.31,155.79L429.58,244.72L430.86,280.29L432.13,199.76L433.41,262.3L434.68,97.8L435.96,126.76L437.23,138.35L438.51,142.98L439.78,144.83L441.05,240.33L442.33,183.78L443.6,161.15L444.88,57.34L446.15,205.34L447.43,264.54L448.7,288.21L449.98,297.69L451.25,301.47L453.8,303.6L455.08,303.84L456.35,209.18L457.63,171.31L458.9,250.93L460.18,282.77L461.45,295.51L462.73,300.6L464,207.88" style="vector-effect: none; fill: none; stroke: rgb(99, 110, 250); stroke-opacity: 1; stroke-width: 2px; opacity: 1;"/></g><g class="points"/><g class="text"/></g></g></g><g class="overplot"/><path class="xlines-above crisp" d="M0,0" style="fill: none;"/><path class="ylines-above crisp" d="M0,0" style="fill: none;"/><g class="overlines-above"/><g class="xaxislayer-above"><g class="xtick"><text text-anchor="middle" x="0" y="433" transform="translate(80,0)" style="font-family: 'Open Sans', verdana, arial, sans-serif; font-size: 12px; fill: rgb(42, 63, 95); fill-opacity: 1; white-space: pre; opacity: 1;">Jan 2018</text></g><g class="xtick"><text text-anchor="middle" x="0" y="433" style="font-family: 'Open Sans', verdana, arial, sans-serif; font-size: 12px; fill: rgb(42, 63, 95); fill-opacity: 1; white-space: pre; opacity: 1;" transform="translate(155.20999999999998,0)">Mar 2018</text></g><g class="xtick"><text text-anchor="middle" x="0" y="433" style="font-family: 'Open Sans', verdana, arial, sans-serif; font-size: 12px; fill: rgb(42, 63, 95); fill-opacity: 1; white-space: pre; opacity: 1;" transform="translate(232.97,0)">May 2018</text></g><g class="xtick"><text text-anchor="middle" x="0" y="433" style="font-family: 'Open Sans', verdana, arial, sans-serif; font-size: 12px; fill: rgb(42, 63, 95); fill-opacity: 1; white-space: pre; opacity: 1;" transform="translate(310.73,0)">Jul 2018</text></g><g class="xtick"><text text-anchor="middle" x="0" y="433" style="font-family: 'Open Sans', verdana, arial, sans-serif; font-size: 12px; fill: rgb(42, 63, 95); fill-opacity: 1; white-space: pre; opacity: 1;" transform="translate(389.76,0)">Sep 2018</text></g><g class="xtick"><text text-anchor="middle" x="0" y="433" style="font-family: 'Open Sans', verdana, arial, sans-serif; font-size: 12px; fill: rgb(42, 63, 95); fill-opacity: 1; white-space: pre; opacity: 1;" transform="translate(467.52,0)">Nov 2018</text></g></g><g class="yaxislayer-above"><g class="ytick"><text text-anchor="end" x="79" y="4.199999999999999" transform="translate(0,404)" style="font-family: 'Open Sans', verdana, arial, sans-serif; font-size: 12px; fill: rgb(42, 63, 95); fill-opacity: 1; white-space: pre; opacity: 1;">0</text></g><g class="ytick"><text text-anchor="end" x="79" y="4.199999999999999" style="font-family: 'Open Sans', verdana, arial, sans-serif; font-size: 12px; fill: rgb(42, 63, 95); fill-opacity: 1; white-space: pre; opacity: 1;" transform="translate(0,325.03)">0.5</text></g><g class="ytick"><text text-anchor="end" x="79" y="4.199999999999999" style="font-family: 'Open Sans', verdana, arial, sans-serif; font-size: 12px; fill: rgb(42, 63, 95); fill-opacity: 1; white-space: pre; opacity: 1;" transform="translate(0,246.07)">1</text></g><g class="ytick"><text text-anchor="end" x="79" y="4.199999999999999" style="font-family: 'Open Sans', verdana, arial, sans-serif; font-size: 12px; fill: rgb(42, 63, 95); fill-opacity: 1; white-space: pre; opacity: 1;" transform="translate(0,167.1)">1.5</text></g></g><g class="overaxes-above"/></g></g><g class="polarlayer"/><g class="smithlayer"/><g class="ternarylayer"/><g class="geolayer"/><g class="funnelarealayer"/><g class="pielayer"/><g class="iciclelayer"/><g class="treemaplayer"/><g class="sunburstlayer"/><g class="glimages"/><defs id="topdefs-162927"><g class="clips"/><clipPath id="legend162927"><rect width="135" height="48" x="0" y="0"/></clipPath></defs><g class="layer-above"><g class="imagelayer"/><g class="shapelayer"/></g><g class="infolayer"><g class="legend" pointer-events="all" transform="translate(553.28,100)"><rect class="bg" shape-rendering="crispEdges" width="135" height="48" x="0" y="0" style="stroke: rgb(68, 68, 68); stroke-opacity: 1; fill: rgb(0, 0, 0); fill-opacity: 0; stroke-width: 0px;"/><g class="scrollbox" transform="" clip-path="url(#legend162927)"><text class="legendtitletext" text-anchor="start" x="2" y="18.2" style="font-family: 'Open Sans', verdana, arial, sans-serif; font-size: 14px; fill: rgb(42, 63, 95); fill-opacity: 1; white-space: pre;">variable</text><g class="groups" transform=""><g class="traces" transform="translate(0,32.7)" style="opacity: 1;"><text class="legendtext" text-anchor="start" x="40" y="4.680000000000001" style="font-family: 'Open Sans', verdana, arial, sans-serif; font-size: 12px; fill: rgb(42, 63, 95); fill-opacity: 1; white-space: pre;">suavizado_exp</text><g class="layers" style="opacity: 1;"><g class="legendfill"/><g class="legendlines"><path class="js-line" d="M5,0h30" style="fill: none; stroke: rgb(99, 110, 250); stroke-opacity: 1; stroke-width: 2px;"/></g><g class="legendsymbols"><g class="legendpoints"/></g></g><rect class="legendtoggle" x="0" y="-9.5" width="129.515625" height="19" style="fill: rgb(0, 0, 0); fill-opacity: 0;"/></g></g></g><rect class="scrollbar" rx="20" ry="3" width="0" height="0" x="0" y="0" style="fill: rgb(128, 139, 164); fill-opacity: 1;"/></g><g class="g-gtitle"><text class="gtitle" x="35" y="50" text-anchor="start" dy="0em" style="font-family: 'Open Sans', verdana, arial, sans-serif; font-size: 17px; fill: rgb(42, 63, 95); opacity: 1; font-weight: normal; white-space: pre;">Violencia LGBTQ+ en 2018</text></g><g class="g-xtitle"><text class="xtitle" x="312" y="460.3" text-anchor="middle" style="font-family: 'Open Sans', verdana, arial, sans-serif; font-size: 14px; fill: rgb(42, 63, 95); opacity: 1; font-weight: normal; white-space: pre;">Fecha</text></g><g class="g-ytitle"><text class="ytitle" transform="rotate(-90,35.075,260)" x="35.075" y="260" text-anchor="middle" style="font-family: 'Open Sans', verdana, arial, sans-serif; font-size: 14px; fill: rgb(42, 63, 95); opacity: 1; font-weight: normal; white-space: pre;">value</text></g></g></svg>