<svg class="main-svg" xmlns="http://www.w3.org/2000/svg" xmlns:xlink="http://www.w3.org/1999/xlink" width="700" height="500" style="" viewBox="0 0 700 500"><rect x="0" y="0" width="700" height="500" style="fill: rgb(0, 0, 0); fill-opacity: 0;"/><defs id="defs-7fb1eb"><g class="clips"><clipPath id="clip7fb1ebxyplot" class="plotclip"><rect width="540" height="320"/></clipPath><clipPath class="axesclip" id="clip7fb1ebx"><rect x="80" y="0" width="540" height="500"/></clipPath><clipPath class="axesclip" id="clip7fb1eby"><rect x="0" y="100" width="700" height="320"/></clipPath><clipPath class="axesclip" id="clip7fb1ebxy"><rect x="80" y="100" width="540" height="320"/></clipPath></g><g class="gradients"/><g class="patterns"/></defs><g class="bglayer"><rect class="bg" x="80" y="100" width="540" height="320" style="fill: rgb(0, 0, 0); fill-opacity: 0; stroke-width: 0;"/></g><g class="layer-below"><g class="imagelayer"/><g class="shapelayer"/></g><g class="cartesianlayer"><g class="subplot xy"><g class="layer-subplot"><g class="shapelayer"/><g class="imagelayer"/></g><g class="minor-gridlayer"><g class="x"/><g class="y"/></g><g class="gridlayer"><g class="x"><path class="xgrid crisp" transform="translate(168.76999999999998,0)" d="M0,100v320" style="stroke: rgb(255, 255, 255); stroke-opacity: 1; stroke-width: 1px;"/><path class="xgrid crisp" transform="translate(259.01,0)" d="M0,100v320" style="stroke: rgb(255, 255, 255); stroke-opacity: 1; stroke-width: 1px;"/><path class="xgrid crisp" transform="translate(349.26,0)" d="M0,100v320" style="stroke: rgb(255, 255, 255); stroke-opacity: 1; stroke-width: 1px;"/><path class="xgrid crisp" transform="translate(440.99,0)" d="M0,100v320" style="stroke: rgb(255, 255, 255); stroke-opacity: 1; stroke-width: 1px;"/><path class="xgrid crisp" transform="translate(531.23,0)" d="M0,100v320" style="stroke: rgb(255, 255, 255); stroke-opacity: 1; stroke-width: 1px;"/></g><g class="y"><path class="ygrid crisp" transform="translate(0,356)" d="M80,0h540" style="stroke: rgb(255, 255, 255); stroke-opacity: 1; stroke-width: 1px;"/><path class="ygrid crisp" transform="translate(0,308)" d="M80,0h540" style="stroke: rgb(255, 255, 255); stroke-opacity: 1; stroke-width: 1px;"/><path class="ygrid crisp" transform="translate(0,260)" d="M80,0h540" style="stroke: rgb(255, 255, 255); stroke-opacity: 1; stroke-width: 1px;"/><path class="ygrid crisp" transform="translate(0,212)" d="M80,0h540" style="stroke: rgb(255, 255, 255); stroke-opacity: 1; stroke-width: 1px;"/><path class="ygrid crisp" transform="translate(0,164)" d="M80,0h540" style="stroke: rgb(255, 255, 255); stroke-opacity: 1; stroke-width: 1px;"/><path class="ygrid crisp" transform="translate(0,116)" d="M80,0h540" style="stroke: rgb(255, 255, 255); stroke-opacity: 1; stroke-width: 1px;"/></g></g><g class="zerolinelayer"><path class="yzl zl crisp" transform="translate(0,404)" d="M80,0h540" style="stroke: rgb(255, 255, 255); stroke-opacity: 1; stroke-width: 2px;"/></g><path class="xlines-below"/><path class="ylines-below"/><g class="overlines-below"/><g class="xaxislayer-below"/><g class="yaxislayer-below"/><g class="overaxes-below"/><g class="plot" transform="translate(80,100)" clip-path="url(#clip7fb1ebxyplot)"><g class="scatterlayer mlayer"><g class="trace scatter tracecc524b" style="stroke-miterlimit: 2; opacity: 1;"><g class="fills"/><g class="errorbars"/><g class="lines"><path class="js-line" d="M0,208L1.48,304L2.96,208L5.92,304L7.4,256L8.88,304L10.36,256L11.84,304L13.32,208L16.27,304L17.75,304L19.23,256L20.71,256L22.19,304L23.67,304L25.15,256L26.63,256L28.11,160L29.59,256L31.07,256L32.55,304L34.03,304L35.51,256L36.99,256L38.47,304L41.42,304L42.9,256L44.38,304L45.86,304L48.82,208L50.3,304L53.26,304L54.74,208L57.7,304L59.18,208L60.66,208L62.14,304L63.62,304L65.1,160L66.58,304L68.05,256L69.53,304L71.01,256L72.49,304L73.97,208L75.45,304L76.93,304L78.41,304L79.89,160L82.85,304L84.33,304L85.81,304L87.29,256L88.77,256L90.25,304L91.73,304L93.21,256L94.68,208L96.16,256L97.64,208L99.12,256L100.6,304L102.08,16L103.56,304L105.04,304L106.52,208L108,256L109.48,304L110.96,304L112.44,304L113.92,256L115.4,256L116.88,208L118.36,256L119.84,256L121.32,304L122.79,208L124.27,256L125.75,256L127.23,208L128.71,304L130.19,160L131.67,256L133.15,304L134.63,256L136.11,304L137.59,304L139.07,256L140.55,304L143.51,304L144.99,256L146.47,304L147.95,304L155.34,304L156.82,256L158.3,208L159.78,256L161.26,304L162.74,208L164.22,304L165.7,304L167.18,304L168.66,256L170.14,256L171.62,304L174.58,304L176.05,256L177.53,304L179.01,304L180.49,208L181.97,256L183.45,304L184.93,304L186.41,256L187.89,304L192.33,304L193.81,256L195.29,208L196.77,304L198.25,112L199.73,256L201.21,208L202.68,304L205.64,304L207.12,256L208.6,304L210.08,304L211.56,208L213.04,304L214.52,304L216,256L218.96,256L220.44,304L221.92,256L223.4,304L224.88,304L226.36,256L227.84,304L229.32,304L230.79,304L232.27,256L233.75,304L235.23,304L238.19,208L239.67,256L242.63,256L244.11,208L245.59,64L247.07,256L248.55,208L250.03,112L252.99,304L254.47,304L255.95,256L257.42,304L258.9,304L260.38,112L261.86,256L263.34,256L264.82,112L266.3,256L267.78,112L269.26,304L270.74,256L272.22,256L275.18,256L276.66,304L278.14,208L279.62,304L281.1,304L282.58,160L284.05,256L285.53,208L287.01,256L288.49,256L289.97,208L291.45,256L292.93,256L294.41,304L295.89,304L297.37,208L298.85,304L300.33,304L303.29,304L304.77,208L306.25,160L307.73,160L309.21,304L310.68,304L312.16,256L313.64,304L315.12,256L316.6,304L318.08,256L319.56,256L321.04,256L322.52,304L324,208L325.48,208L326.96,304L328.44,208L329.92,304L331.4,256L332.88,304L334.36,304L335.84,256L337.32,304L338.79,304L340.27,256L341.75,208L343.23,256L344.71,208L346.19,256L347.67,208L349.15,256L350.63,256L352.11,208L353.59,304L355.07,208L356.55,256L358.03,64L359.51,304L360.99,208L365.42,208L366.9,256L368.38,304L369.86,256L371.34,304L372.82,304L374.3,256L375.78,160L377.26,160L378.74,256L383.18,256L384.66,304L386.14,256L387.62,304L389.1,256L390.58,304L393.53,304L395.01,256L396.49,256L397.97,304L400.93,304L402.41,208L403.89,208L405.37,256L409.81,256L411.29,208L412.77,208L414.25,304L415.73,208L417.21,208L418.68,256L420.16,256L421.64,304L423.12,256L424.6,208L426.08,304L427.56,160L429.04,208L430.52,256L432,208L433.48,160L434.96,304L436.44,208L437.92,256L439.4,208L440.88,256L442.36,304L443.84,208L446.79,304L448.27,208L451.23,304L452.71,208L455.67,208L457.15,256L458.63,304L460.11,256L461.59,208L463.07,304L464.55,256L466.03,256L467.51,304L468.99,256L471.95,256L473.42,304L474.9,304L476.38,208L477.86,304L479.34,160L480.82,304L482.3,304L483.78,304L485.26,256L486.74,304L488.22,304L489.7,256L491.18,304L492.66,208L494.14,256L495.62,112L497.1,256L498.58,304L500.05,304L501.53,208L503.01,256L505.97,160L507.45,304L508.93,208L510.41,304L511.89,304L513.37,208L514.85,304L516.33,208L517.81,160L519.29,160L520.77,256L522.25,208L525.21,208L526.68,304L529.64,304L531.12,256L532.6,304L534.08,304L535.56,112L537.04,304L538.52,304L540,160" style="vector-effect: none; fill: none; stroke: rgb(99, 110, 250); stroke-opacity: 1; stroke-width: 2px; opacity: 1;"/></g><g class="points"/><g class="text"/></g></g></g><g class="overplot"/><path class="xlines-above crisp" d="M0,0" style="fill: none;"/><path class="ylines-above crisp" d="M0,0" style="fill: none;"/><g class="overlines-above"/><g class="xaxislayer-above"><g class="xtick"><text text-anchor="middle" x="0" y="433" transform="translate(80,0)" style="font-family: 'Open Sans', verdana, arial, sans-serif; font-size: 12px; fill: rgb(42, 63, 95); fill-opacity: 1; white-space: pre; opacity: 1;">Jan 2020</text></g><g class="xtick"><text text-anchor="middle" x="0" y="433" style="font-family: 'Open Sans', verdana, arial, sans-serif; font-size: 12px; fill: rgb(42, 63, 95); fill-opacity: 1; white-space: pre; opacity: 1;" transform="translate(168.76999999999998,0)">Mar 2020</text></g><g class="xtick"><text text-anchor="middle" x="0" y="433" style="font-family: 'Open Sans', verdana, arial, sans-serif; font-size: 12px; fill: rgb(42, 63, 95); fill-opacity: 1; white-space: pre; opacity: 1;" transform="translate(259.01,0)">May 2020</text></g><g class="xtick"><text text-anchor="middle" x="0" y="433" style="font-family: 'Open Sans', verdana, arial, sans-serif; font-size: 12px; fill: rgb(42, 63, 95); fill-opacity: 1; white-space: pre; opacity: 1;" transform="translate(349.26,0)">Jul 2020</text></g><g class="xtick"><text text-anchor="middle" x="0" y="433" style="font-family: 'Open Sans', verdana, arial, sans-serif; font-size: 12px; fill: rgb(42, 63, 95); fill-opacity: 1; white-space: pre; opacity: 1;" transform="translate(440.99,0)">Sep 2020</text></g><g class="xtick"><text text-anchor="middle" x="0" y="433" style="font-family: 'Open Sans', verdana, arial, sans-serif; font-size: 12px; fill: rgb(42, 63, 95); fill-opacity: 1; white-space: pre; opacity: 1;" transform="translate(531.23,0)">Nov 2020</text></g></g><g class="yaxislayer-above"><g class="ytick"><text text-anchor="end" x="79" y="4.199999999999999" transform="translate(0,404)" style="font-family: 'Open Sans', verdana, arial, sans-serif; font-size: 12px; fill: rgb(42, 63, 95); fill-opacity: 1; white-space: pre; opacity: 1;">0</text></g><g class="ytick"><text text-anchor="end" x="79" y="4.199999999999999" style="font-family: 'Open Sans', verdana, arial, sans-serif; font-size: 12px; fill: rgb(42, 63, 95); fill-opacity: 1; white-space: pre; opacity: 1;" transform="translate(0,356)">1</text></g><g class="ytick"><text text-anchor="end" x="79" y="4.199999999999999" style="font-family: 'Open Sans', verdana, arial, sans-serif; font-size: 12px; fill: rgb(42, 63, 95); fill-opacity: 1; white-space: pre; opacity: 1;" transform="translate(0,308)">2</text></g><g class="ytick"><text text-anchor="end" x="79" y="4.199999999999999" style="font-family: 'Open Sans', verdana, arial, sans-serif; font-size: 12px; fill: rgb(42, 63, 95); fill-opacity: 1; white-space: pre; opacity: 1;" transform="translate(0,260)">3</text></g><g class="ytick"><text text-anchor="end" x="79" y="4.199999999999999" style="font-family: 'Open Sans', verdana, arial, sans-serif; font-size: 12px; fill: rgb(42, 63, 95); fill-opacity: 1; white-space: pre; opacity: 1;" transform="translate(0,212)">4</text></g><g class="ytick"><text text-anchor="end" x="79" y="4.199999999999999" style="font-family: 'Open Sans', verdana, arial, sans-serif; font-size: 12px; fill: rgb(42, 63, 95); fill-opacity: 1; white-space: pre; opacity: 1;" transform="translate(0,164)">5</text></g><g class="ytick"><text text-anchor="end" x="79" y="4.199999999999999" style="font-family: 'Open Sans', verdana, arial, sans-serif; font-size: 12px; fill: rgb(42, 63, 95); fill-opacity: 1; white-space: pre; opacity: 1;" transform="translate(0,116)">6</text></g></g><g class="overaxes-above"/></g></g><g class="polarlayer"/><g class="smithlayer"/><g class="ternarylayer"/><g class="geolayer"/><g class="funnelarealayer"/><g class="pielayer"/><g class="iciclelayer"/><g class="treemaplayer"/><g class="sunburstlayer"/><g class="glimages"/><defs id="topdefs-7fb1eb"><g class="clips"/></defs><g class="layer-above"><g class="imagelayer"/><g class="shapelayer"/></g><g class="infolayer"><g class="g-gtitle"><text class="gtitle" x="35" y="50" text-anchor="start" dy="0em" style="font-family: 'Open Sans', verdana, arial, sans-serif; font-size: 17px; fill: rgb(42, 63, 95); opacity: 1; font-weight: normal; white-space: pre;">Violencia LGBTQ+ en 2020</text></g><g class="g-xtitle"><text class="xtitle" x="350" y="460.3" text-anchor="middle" style="font-family: 'Open Sans', verdana, arial, sans-serif; font-size: 14px; fill: rgb(42, 63, 95); opacity: 1; font-weight: normal; white-space: pre;">Fecha</text></g><g class="g-ytitle"><text class="ytitle" transform="rotate(-90,47.059375,260)" x="47.059375" y="260" text-anchor="middle" style="font-family: 'Open Sans', verdana, arial, sans-serif; font-size: 14px; fill: rgb(42, 63, 95); opacity: 1; font-weight: normal; white-space: pre;">Total</text></g></g></svg>