<svg class="main-svg" xmlns="http://www.w3.org/2000/svg" xmlns:xlink="http://www.w3.org/1999/xlink" width="1080" height="1080" style="" viewBox="0 0 1080 1080"><rect x="0" y="0" width="1080" height="1080" style="fill: rgb(0, 0, 0); fill-opacity: 0;"/><defs id="defs-609deb"><g class="clips"/><g class="gradients"/><g class="patterns"/></defs><g class="bglayer"/><g class="layer-below"><g class="imagelayer"/><g class="shapelayer"/></g><g class="cartesianlayer"/><g class="polarlayer"/><g class="smithlayer"/><g class="ternarylayer"/><g class="geolayer"/><g class="funnelarealayer"/><g class="pielayer"/><g class="iciclelayer"/><g class="treemaplayer"/><g class="sunburstlayer"><g class="trace sunburst" stroke-linejoin="round" style="opacity: 1;"><g class="slice cursor-pointer"><path class="surface" d="M540,550L765,550A225,225 0,0,0 332.4330259126946,463.161349226051L540,550A0,0 0,0,1 540,550Z" style="pointer-events: none; stroke-width: 1; fill: rgb(192, 149, 203); fill-opacity: 1; stroke: rgb(0, 0, 0); stroke-opacity: 0;"/><g class="slicetext"><text data-notex="1" class="slicetext" text-anchor="middle" x="0" y="0" style="font-family: 'Open Sans', verdana, arial, sans-serif; font-size: 12px; fill: rgb(68, 68, 68); fill-opacity: 1; white-space: pre;" transform="translate(562.3615166649174,443.11119428345637)">Persona no identificada</text></g></g><g class="slice cursor-pointer"><path class="surface" d="M540,550L332.4330259126946,463.161349226051A225,225 0,0,0 361.0120353557422,686.3389471592983L540,550A0,0 0,0,1 540,550Z" style="pointer-events: none; stroke-width: 1; fill: rgb(106, 149, 213); fill-opacity: 1; stroke: rgb(0, 0, 0); stroke-opacity: 0;"/><g class="slicetext"><text data-notex="1" class="slicetext" text-anchor="middle" x="0" y="0" style="font-family: 'Open Sans', verdana, arial, sans-serif; font-size: 12px; fill: rgb(68, 68, 68); fill-opacity: 1; white-space: pre;" transform="translate(391.21493471116844,573.5526729620318)">Familiar o cohabitante</text></g></g><g class="slice cursor-pointer"><path class="surface" d="M540,550L361.0120353557422,686.3389471592983A225,225 0,0,0 501.34731916445935,771.6550704681168L540,550A0,0 0,0,1 540,550Z" style="pointer-events: none; stroke-width: 1; fill: rgb(116, 172, 111); fill-opacity: 1; stroke: rgb(0, 0, 0); stroke-opacity: 0;"/><g class="slicetext"><text data-notex="1" class="slicetext" text-anchor="middle" x="0" y="0" style="font-family: 'Open Sans', verdana, arial, sans-serif; font-size: 12px; fill: rgb(68, 68, 68); fill-opacity: 1; white-space: pre;" transform="translate(480.78446157626604,652.8154306199652)scale(0.6248325133481363)rotate(-58.70270270270271)">Empleada de establecimiento comercial o profesionista</text></g></g><g class="slice cursor-pointer"><path class="surface" d="M540,550L501.34731916445935,771.6550704681168A225,225 0,0,0 655.7925786109046,742.9172847067817L540,550A0,0 0,0,1 540,550Z" style="pointer-events: none; stroke-width: 1; fill: rgb(247, 209, 104); fill-opacity: 1; stroke: rgb(0, 0, 0); stroke-opacity: 0;"/><g class="slicetext"><text data-notex="1" class="slicetext" text-anchor="middle" x="0" y="0" style="font-family: 'Open Sans', verdana, arial, sans-serif; font-size: 12px; fill: rgb(68, 68, 68); fill-opacity: 1; white-space: pre;" transform="translate(558.2255026689559,670.7192271134755)scale(0.9256338622676239)rotate(79.45945945945937)">Patrona o fuente de ingreso privada</text></g></g><g class="slice cursor-pointer"><path class="surface" d="M540,550L655.7925786109046,742.9172847067817A225,225 0,0,0 746.5705885787424,639.1829127929332L540,550A0,0 0,0,1 540,550Z" style="pointer-events: none; stroke-width: 1; fill: rgb(246, 147, 76); fill-opacity: 1; stroke: rgb(0, 0, 0); stroke-opacity: 0;"/><g class="slicetext"><text data-notex="1" class="slicetext" text-anchor="middle" x="0" y="0" style="font-family: 'Open Sans', verdana, arial, sans-serif; font-size: 12px; fill: rgb(68, 68, 68); fill-opacity: 1; white-space: pre;" transform="translate(636.9568752141421,640.8267737155472)rotate(41.189189189189165)">Servidora pública</text></g></g><g class="slice cursor-pointer"><path class="surface" d="M540,550L746.5705885787424,639.1829127929332A225,225 0,0,0 765,550L540,550A0,0 0,0,1 540,550Z" style="pointer-events: none; stroke-width: 1; fill: rgb(225, 89, 113); fill-opacity: 1; stroke: rgb(0, 0, 0); stroke-opacity: 0;"/><g class="slicetext"><text data-notex="1" class="slicetext" text-anchor="middle" x="0" y="0" style="font-family: 'Open Sans', verdana, arial, sans-serif; font-size: 12px; fill: rgb(68, 68, 68); fill-opacity: 1; white-space: pre;" transform="translate(661.3049961663503,578.0233097889447)scale(0.6432873690276868)rotate(11.675675675675677)">Doctora, psicóloga, enfermera o personal de salud</text></g></g><g class="slice"><path class="surface" d="M765,550L990,550A450,450 0,0,0 637.2942044977561,110.64383722184022L588.6471022488781,330.3219186109201A225,225 0,0,1 765,550Z" style="pointer-events: none; stroke-width: 1; fill: rgb(192, 149, 203); fill-opacity: 1; stroke: rgb(0, 0, 0); stroke-opacity: 0; opacity: 0.7;"/><g class="slicetext"><text data-notex="1" class="slicetext" text-anchor="middle" x="0" y="0" style="font-family: 'Open Sans', verdana, arial, sans-serif; font-size: 12px; fill: rgb(68, 68, 68); fill-opacity: 1; white-space: pre;" transform="translate(803.6860990948178,343.2197897500744)">Verbal</text></g></g><g class="slice"><path class="surface" d="M588.6471022488781,330.3219186109201L637.2942044977561,110.64383722184022A450,450 0,0,0 293.31242799988064,173.6421359654007L416.6562139999403,361.82106798270036A225,225 0,0,1 588.6471022488781,330.3219186109201Z" style="pointer-events: none; stroke-width: 1; fill: rgb(192, 149, 203); fill-opacity: 1; stroke: rgb(0, 0, 0); stroke-opacity: 0; opacity: 0.7;"/><g class="slicetext"><text data-notex="1" class="slicetext" text-anchor="middle" x="0" y="0" style="font-family: 'Open Sans', verdana, arial, sans-serif; font-size: 12px; fill: rgb(68, 68, 68); fill-opacity: 1; white-space: pre;" transform="translate(479.70006230927953,222.52166098252053)">Asesinato</text></g></g><g class="slice"><path class="surface" d="M416.6562139999403,361.82106798270036L293.31242799988064,173.6421359654007A450,450 0,0,0 124.86605182538915,376.32269845210203L332.4330259126946,463.161349226051A225,225 0,0,1 416.6562139999403,361.82106798270036Z" style="pointer-events: none; stroke-width: 1; fill: rgb(192, 149, 203); fill-opacity: 1; stroke: rgb(0, 0, 0); stroke-opacity: 0; opacity: 0.7;"/><g class="slicetext"><text data-notex="1" class="slicetext" text-anchor="middle" x="0" y="0" style="font-family: 'Open Sans', verdana, arial, sans-serif; font-size: 12px; fill: rgb(68, 68, 68); fill-opacity: 1; white-space: pre;" transform="translate(272.30622893753804,332.0216078605745)">Física</text></g></g><g class="slice"><path class="surface" d="M332.4330259126946,463.161349226051L124.86605182538915,376.32269845210203A450,450 0,0,0 93.80836391972326,608.4210911572685L316.9041819598616,579.2105455786343A225,225 0,0,1 332.4330259126946,463.161349226051Z" style="pointer-events: none; stroke-width: 1; fill: rgb(106, 149, 213); fill-opacity: 1; stroke: rgb(0, 0, 0); stroke-opacity: 0; opacity: 0.7;"/><g class="slicetext"><text data-notex="1" class="slicetext" text-anchor="middle" x="0" y="0" style="font-family: 'Open Sans', verdana, arial, sans-serif; font-size: 12px; fill: rgb(68, 68, 68); fill-opacity: 1; white-space: pre;" transform="translate(186.064462657771,507.138967769748)">Psicológica</text></g></g><g class="slice"><path class="surface" d="M316.9041819598616,579.2105455786343L93.80836391972326,608.4210911572685A450,450 0,0,0 182.0240707114845,822.6778943185966L361.0120353557422,686.3389471592983A225,225 0,0,1 316.9041819598616,579.2105455786343Z" style="pointer-events: none; stroke-width: 1; fill: rgb(106, 149, 213); fill-opacity: 1; stroke: rgb(0, 0, 0); stroke-opacity: 0; opacity: 0.7;"/><g class="slicetext"><text data-notex="1" class="slicetext" text-anchor="middle" x="0" y="0" style="font-family: 'Open Sans', verdana, arial, sans-serif; font-size: 12px; fill: rgb(68, 68, 68); fill-opacity: 1; white-space: pre;" transform="translate(209.58443505978408,690.747484415305)">Verbal</text></g></g><g class="slice"><path class="surface" d="M361.0120353557422,686.3389471592983L182.0240707114845,822.6778943185966A450,450 0,0,0 462.6946383289187,993.3101409362337L501.34731916445935,771.6550704681168A225,225 0,0,1 361.0120353557422,686.3389471592983Z" style="pointer-events: none; stroke-width: 1; fill: rgb(116, 172, 111); fill-opacity: 1; stroke: rgb(0, 0, 0); stroke-opacity: 0; opacity: 0.7;"/><g class="slicetext"><text data-notex="1" class="slicetext" text-anchor="middle" x="0" y="0" style="font-family: 'Open Sans', verdana, arial, sans-serif; font-size: 12px; fill: rgb(68, 68, 68); fill-opacity: 1; white-space: pre;" transform="translate(321.99330463667457,907.9597081037197)scale(0.8816175888164272)rotate(31.29729729729729)">Impedimento de entrada, negación de servicios o derechos</text></g></g><g class="slice"><path class="surface" d="M501.34731916445935,771.6550704681168L462.6946383289187,993.3101409362337A450,450 0,0,0 771.5851572218091,935.8345694135635L655.7925786109046,742.9172847067817A225,225 0,0,1 501.34731916445935,771.6550704681168Z" style="pointer-events: none; stroke-width: 1; fill: rgb(247, 209, 104); fill-opacity: 1; stroke: rgb(0, 0, 0); stroke-opacity: 0; opacity: 0.7;"/><g class="slicetext"><text data-notex="1" class="slicetext" text-anchor="middle" x="0" y="0" style="font-family: 'Open Sans', verdana, arial, sans-serif; font-size: 12px; fill: rgb(68, 68, 68); fill-opacity: 1; white-space: pre;" transform="translate(601.7392791469306,886.3049297560501)">Laboral</text></g></g><g class="slice"><path class="surface" d="M655.7925786109046,742.9172847067817L771.5851572218091,935.8345694135635A450,450 0,0,0 880.3146733513595,844.4247324899143L710.1573366756797,697.2123662449571A225,225 0,0,1 655.7925786109046,742.9172847067817Z" style="pointer-events: none; stroke-width: 1; fill: rgb(246, 147, 76); fill-opacity: 1; stroke: rgb(0, 0, 0); stroke-opacity: 0; opacity: 0.7;"/><g class="slicetext"><text data-notex="1" class="slicetext" text-anchor="middle" x="0" y="0" style="font-family: 'Open Sans', verdana, arial, sans-serif; font-size: 12px; fill: rgb(68, 68, 68); fill-opacity: 1; white-space: pre;" transform="translate(754.8921470733397,809.9427566482528)scale(0.6198273337477606)rotate(49.94594594594594)">Impedimento de entrada, negación de servicios o derechos</text></g></g><g class="slice"><path class="surface" d="M710.1573366756797,697.2123662449571L880.3146733513595,844.4247324899143A450,450 0,0,0 953.1411771574849,728.3658255858663L746.5705885787424,639.1829127929332A225,225 0,0,1 710.1573366756797,697.2123662449571Z" style="pointer-events: none; stroke-width: 1; fill: rgb(246, 147, 76); fill-opacity: 1; stroke: rgb(0, 0, 0); stroke-opacity: 0; opacity: 0.7;"/><g class="slicetext"><text data-notex="1" class="slicetext" text-anchor="middle" x="0" y="0" style="font-family: 'Open Sans', verdana, arial, sans-serif; font-size: 12px; fill: rgb(68, 68, 68); fill-opacity: 1; white-space: pre;" transform="translate(871.3087209285042,762.0811604336153)">Verbal</text></g></g><g class="slice"><path class="surface" d="M746.5705885787424,639.1829127929332L953.1411771574849,728.3658255858663A450,450 0,0,0 990,550.0000000000001L765,550A225,225 0,0,1 746.5705885787424,639.1829127929332Z" style="pointer-events: none; stroke-width: 1; fill: rgb(225, 89, 113); fill-opacity: 1; stroke: rgb(0, 0, 0); stroke-opacity: 0; opacity: 0.7;"/><g class="slicetext"><text data-notex="1" class="slicetext" text-anchor="middle" x="0" y="0" style="font-family: 'Open Sans', verdana, arial, sans-serif; font-size: 12px; fill: rgb(68, 68, 68); fill-opacity: 1; white-space: pre;" transform="translate(869.7125622065495,620.98237760793)scale(0.6198273337477606)rotate(11.675675675675677)">Impedimento de entrada, negación de servicios o derechos</text></g></g></g></g><g class="glimages"/><defs id="topdefs-609deb"><g class="clips"/></defs><g class="layer-above"><g class="imagelayer"/><g class="shapelayer"/></g><g class="infolayer"><g class="g-gtitle"><text class="gtitle" x="54" y="50" text-anchor="start" dy="0em" style="font-family: 'Open Sans', verdana, arial, sans-serif; font-size: 17px; fill: rgb(42, 63, 95); opacity: 1; font-weight: normal; white-space: pre;">Tipo de agresión por tipo de agresor</text></g></g></svg>