<svg class="main-svg" xmlns="http://www.w3.org/2000/svg" xmlns:xlink="http://www.w3.org/1999/xlink" width="700" height="500" style="" viewBox="0 0 700 500"><rect x="0" y="0" width="700" height="500" style="fill: rgb(0, 0, 0); fill-opacity: 0;"/><defs id="defs-b10eaf"><g class="clips"><clipPath id="clipb10eafxyplot" class="plotclip"><rect width="540" height="320"/></clipPath><clipPath class="axesclip" id="clipb10eafx"><rect x="80" y="0" width="540" height="500"/></clipPath><clipPath class="axesclip" id="clipb10eafy"><rect x="0" y="100" width="700" height="320"/></clipPath><clipPath class="axesclip" id="clipb10eafxy"><rect x="80" y="100" width="540" height="320"/></clipPath></g><g class="gradients"/><g class="patterns"/></defs><g class="bglayer"><rect class="bg" x="80" y="100" width="540" height="320" style="fill: rgb(0, 0, 0); fill-opacity: 0; stroke-width: 0;"/></g><g class="layer-below"><g class="imagelayer"/><g class="shapelayer"/></g><g class="cartesianlayer"><g class="subplot xy"><g class="layer-subplot"><g class="shapelayer"/><g class="imagelayer"/></g><g class="minor-gridlayer"><g class="x"/><g class="y"/></g><g class="gridlayer"><g class="x"><path class="xgrid crisp" transform="translate(167.53,0)" d="M0,100v320" style="stroke: rgb(255, 255, 255); stroke-opacity: 1; stroke-width: 1px;"/><path class="xgrid crisp" transform="translate(258.02,0)" d="M0,100v320" style="stroke: rgb(255, 255, 255); stroke-opacity: 1; stroke-width: 1px;"/><path class="xgrid crisp" transform="translate(348.52,0)" d="M0,100v320" style="stroke: rgb(255, 255, 255); stroke-opacity: 1; stroke-width: 1px;"/><path class="xgrid crisp" transform="translate(440.49,0)" d="M0,100v320" style="stroke: rgb(255, 255, 255); stroke-opacity: 1; stroke-width: 1px;"/><path class="xgrid crisp" transform="translate(530.99,0)" d="M0,100v320" style="stroke: rgb(255, 255, 255); stroke-opacity: 1; stroke-width: 1px;"/></g><g class="y"><path class="ygrid crisp" transform="translate(0,356)" d="M80,0h540" style="stroke: rgb(255, 255, 255); stroke-opacity: 1; stroke-width: 1px;"/><path class="ygrid crisp" transform="translate(0,308)" d="M80,0h540" style="stroke: rgb(255, 255, 255); stroke-opacity: 1; stroke-width: 1px;"/><path class="ygrid crisp" transform="translate(0,260)" d="M80,0h540" style="stroke: rgb(255, 255, 255); stroke-opacity: 1; stroke-width: 1px;"/><path class="ygrid crisp" transform="translate(0,212)" d="M80,0h540" style="stroke: rgb(255, 255, 255); stroke-opacity: 1; stroke-width: 1px;"/><path class="ygrid crisp" transform="translate(0,164)" d="M80,0h540" style="stroke: rgb(255, 255, 255); stroke-opacity: 1; stroke-width: 1px;"/><path class="ygrid crisp" transform="translate(0,116)" d="M80,0h540" style="stroke: rgb(255, 255, 255); stroke-opacity: 1; stroke-width: 1px;"/></g></g><g class="zerolinelayer"><path class="yzl zl crisp" transform="translate(0,404)" d="M80,0h540" style="stroke: rgb(255, 255, 255); stroke-opacity: 1; stroke-width: 2px;"/></g><path class="xlines-below"/><path class="ylines-below"/><g class="overlines-below"/><g class="xaxislayer-below"/><g class="yaxislayer-below"/><g class="overaxes-below"/><g class="plot" transform="translate(80,100)" clip-path="url(#clipb10eafxyplot)"><g class="scatterlayer mlayer"><g class="trace scatter trace3da330" style="stroke-miterlimit: 2; opacity: 1;"><g class="fills"/><g class="errorbars"/><g class="lines"><path class="js-line" d="M0,304L2.97,304L4.45,256L5.93,256L7.42,160L8.9,304L10.38,64L11.87,256L13.35,256L14.84,256L16.32,64L17.8,208L19.29,160L20.77,256L22.25,256L23.74,160L25.22,256L26.7,304L28.19,208L31.15,208L32.64,112L34.12,256L35.6,304L37.09,208L38.57,256L40.05,304L41.54,256L44.51,256L45.99,208L47.47,304L48.96,304L50.44,304L51.92,208L53.41,256L54.89,256L57.86,160L59.34,208L62.31,16L63.79,160L65.27,208L66.76,208L68.24,112L69.73,304L71.21,112L72.69,208L74.18,256L75.66,160L77.14,160L78.63,112L80.11,304L81.59,208L83.08,256L84.56,256L86.04,304L87.53,208L89.01,112L90.49,256L91.98,256L93.46,160L94.95,208L96.43,112L97.91,160L99.4,256L100.88,208L102.36,64L103.85,208L105.33,256L106.81,256L108.3,112L109.78,256L111.26,304L114.23,160L115.71,16L117.2,256L118.68,208L120.16,304L121.65,208L123.13,256L124.62,256L126.1,304L127.58,256L130.55,256L132.03,208L135,304L136.48,304L137.97,256L139.45,256L143.9,256L145.38,160L146.87,256L148.35,112L149.84,160L151.32,256L152.8,256L154.29,304L155.77,208L157.25,208L160.22,208L161.7,256L163.19,256L164.67,112L166.15,256L167.64,304L169.12,256L170.6,160L172.09,64L173.57,208L175.05,304L176.54,256L178.02,208L179.51,256L180.99,160L182.47,256L183.96,112L185.44,112L186.92,208L188.41,208L189.89,208L191.37,112L194.34,256L195.82,256L197.31,160L198.79,208L200.27,256L201.76,160L204.73,256L206.21,16L207.69,256L209.18,304L213.63,304L215.11,256L216.59,304L218.08,304L219.56,256L221.04,256L222.53,256L224.01,304L226.98,208L228.46,256L232.91,256L234.4,304L237.36,304L238.85,112L240.33,256L241.81,256L244.78,256L246.26,208L247.75,304L249.23,304L250.71,304L252.2,208L253.68,304L255.16,304L256.65,304L258.13,256L259.62,304L261.1,256L262.58,256L264.07,304L265.55,160L267.03,304L268.52,160L270,304L271.48,256L272.97,304L275.93,208L277.42,256L280.38,160L281.87,256L283.35,304L284.84,256L286.32,304L287.8,208L289.29,208L290.77,160L292.25,304L293.74,304L295.22,256L296.7,304L298.19,208L299.67,304L301.15,208L302.64,208L304.12,256L305.6,256L307.09,208L308.57,304L314.51,304L315.99,112L317.47,208L318.96,112L320.44,304L321.92,256L323.41,208L324.89,304L326.37,160L327.86,208L329.34,304L330.82,256L332.31,160L333.79,304L335.27,160L336.76,256L338.24,160L339.73,256L341.21,304L342.69,112L344.18,256L345.66,256L347.14,160L348.63,256L350.11,304L351.59,256L353.08,304L354.56,304L356.04,160L357.53,208L359.01,256L360.49,64L361.98,208L363.46,256L364.95,304L366.43,208L369.4,304L370.88,256L372.36,64L373.85,208L375.33,304L376.81,304L378.3,256L379.78,112L381.26,160L382.75,160L384.23,64L385.71,160L387.2,160L388.68,208L390.16,208L391.65,256L394.62,64L396.1,208L397.58,304L399.07,256L402.03,256L403.52,208L405,208L406.48,16L409.45,304L410.93,304L412.42,160L413.9,208L415.38,304L416.87,304L418.35,256L419.84,256L421.32,112L422.8,256L425.77,64L427.25,160L428.74,256L430.22,256L431.7,256L433.19,160L434.67,112L436.15,256L437.64,304L439.12,160L440.6,160L442.09,256L443.57,256L445.05,304L446.54,304L448.02,112L449.51,304L450.99,256L452.47,208L453.96,304L455.44,160L456.92,256L458.41,160L459.89,304L461.37,208L462.86,256L464.34,256L465.82,208L467.31,256L468.79,208L473.24,208L474.73,256L476.21,112L477.69,256L479.18,64L480.66,112L482.14,256L483.63,256L485.11,304L486.59,304L488.08,256L489.56,160L491.04,304L492.53,304L494.01,208L495.49,208L496.98,160L498.46,304L501.43,304L502.91,208L504.4,208L505.88,304L507.36,112L508.85,160L510.33,256L511.81,208L514.78,304L516.26,208L517.75,112L519.23,256L520.71,256L522.2,160L523.68,208L525.16,160L526.65,256L528.13,112L531.1,304L532.58,304L534.07,256L535.55,160L537.03,256L538.52,256L540,64" style="vector-effect: none; fill: none; stroke: rgb(99, 110, 250); stroke-opacity: 1; stroke-width: 2px; opacity: 1;"/></g><g class="points"/><g class="text"/></g></g></g><g class="overplot"/><path class="xlines-above crisp" d="M0,0" style="fill: none;"/><path class="ylines-above crisp" d="M0,0" style="fill: none;"/><g class="overlines-above"/><g class="xaxislayer-above"><g class="xtick"><text text-anchor="middle" x="0" y="433" transform="translate(80,0)" style="font-family: 'Open Sans', verdana, arial, sans-serif; font-size: 12px; fill: rgb(42, 63, 95); fill-opacity: 1; white-space: pre; opacity: 1;">Jan 2021</text></g><g class="xtick"><text text-anchor="middle" x="0" y="433" style="font-family: 'Open Sans', verdana, arial, sans-serif; font-size: 12px; fill: rgb(42, 63, 95); fill-opacity: 1; white-space: pre; opacity: 1;" transform="translate(167.53,0)">Mar 2021</text></g><g class="xtick"><text text-anchor="middle" x="0" y="433" style="font-family: 'Open Sans', verdana, arial, sans-serif; font-size: 12px; fill: rgb(42, 63, 95); fill-opacity: 1; white-space: pre; opacity: 1;" transform="translate(258.02,0)">May 2021</text></g><g class="xtick"><text text-anchor="middle" x="0" y="433" style="font-family: 'Open Sans', verdana, arial, sans-serif; font-size: 12px; fill: rgb(42, 63, 95); fill-opacity: 1; white-space: pre; opacity: 1;" transform="translate(348.52,0)">Jul 2021</text></g><g class="xtick"><text text-anchor="middle" x="0" y="433" style="font-family: 'Open Sans', verdana, arial, sans-serif; font-size: 12px; fill: rgb(42, 63, 95); fill-opacity: 1; white-space: pre; opacity: 1;" transform="translate(440.49,0)">Sep 2021</text></g><g class="xtick"><text text-anchor="middle" x="0" y="433" style="font-family: 'Open Sans', verdana, arial, sans-serif; font-size: 12px; fill: rgb(42, 63, 95); fill-opacity: 1; white-space: pre; opacity: 1;" transform="translate(530.99,0)">Nov 2021</text></g></g><g class="yaxislayer-above"><g class="ytick"><text text-anchor="end" x="79" y="4.199999999999999" transform="translate(0,404)" style="font-family: 'Open Sans', verdana, arial, sans-serif; font-size: 12px; fill: rgb(42, 63, 95); fill-opacity: 1; white-space: pre; opacity: 1;">0</text></g><g class="ytick"><text text-anchor="end" x="79" y="4.199999999999999" style="font-family: 'Open Sans', verdana, arial, sans-serif; font-size: 12px; fill: rgb(42, 63, 95); fill-opacity: 1; white-space: pre; opacity: 1;" transform="translate(0,356)">1</text></g><g class="ytick"><text text-anchor="end" x="79" y="4.199999999999999" style="font-family: 'Open Sans', verdana, arial, sans-serif; font-size: 12px; fill: rgb(42, 63, 95); fill-opacity: 1; white-space: pre; opacity: 1;" transform="translate(0,308)">2</text></g><g class="ytick"><text text-anchor="end" x="79" y="4.199999999999999" style="font-family: 'Open Sans', verdana, arial, sans-serif; font-size: 12px; fill: rgb(42, 63, 95); fill-opacity: 1; white-space: pre; opacity: 1;" transform="translate(0,260)">3</text></g><g class="ytick"><text text-anchor="end" x="79" y="4.199999999999999" style="font-family: 'Open Sans', verdana, arial, sans-serif; font-size: 12px; fill: rgb(42, 63, 95); fill-opacity: 1; white-space: pre; opacity: 1;" transform="translate(0,212)">4</text></g><g class="ytick"><text text-anchor="end" x="79" y="4.199999999999999" style="font-family: 'Open Sans', verdana, arial, sans-serif; font-size: 12px; fill: rgb(42, 63, 95); fill-opacity: 1; white-space: pre; opacity: 1;" transform="translate(0,164)">5</text></g><g class="ytick"><text text-anchor="end" x="79" y="4.199999999999999" style="font-family: 'Open Sans', verdana, arial, sans-serif; font-size: 12px; fill: rgb(42, 63, 95); fill-opacity: 1; white-space: pre; opacity: 1;" transform="translate(0,116)">6</text></g></g><g class="overaxes-above"/></g></g><g class="polarlayer"/><g class="smithlayer"/><g class="ternarylayer"/><g class="geolayer"/><g class="funnelarealayer"/><g class="pielayer"/><g class="iciclelayer"/><g class="treemaplayer"/><g class="sunburstlayer"/><g class="glimages"/><defs id="topdefs-b10eaf"><g class="clips"/></defs><g class="layer-above"><g class="imagelayer"/><g class="shapelayer"/></g><g class="infolayer"><g class="g-gtitle"><text class="gtitle" x="35" y="50" text-anchor="start" dy="0em" style="font-family: 'Open Sans', verdana, arial, sans-serif; font-size: 17px; fill: rgb(42, 63, 95); opacity: 1; font-weight: normal; white-space: pre;">Violencia LGBTQ+ en 2021</text></g><g class="g-xtitle"><text class="xtitle" x="350" y="460.3" text-anchor="middle" style="font-family: 'Open Sans', verdana, arial, sans-serif; font-size: 14px; fill: rgb(42, 63, 95); opacity: 1; font-weight: normal; white-space: pre;">Fecha</text></g><g class="g-ytitle"><text class="ytitle" transform="rotate(-90,47.059375,260)" x="47.059375" y="260" text-anchor="middle" style="font-family: 'Open Sans', verdana, arial, sans-serif; font-size: 14px; fill: rgb(42, 63, 95); opacity: 1; font-weight: normal; white-space: pre;">Total</text></g></g></svg>