<svg class="main-svg" xmlns="http://www.w3.org/2000/svg" xmlns:xlink="http://www.w3.org/1999/xlink" width="700" height="500" style="" viewBox="0 0 700 500"><rect x="0" y="0" width="700" height="500" style="fill: rgb(0, 0, 0); fill-opacity: 0;"/><defs id="defs-20a3d7"><g class="clips"><clipPath id="clip20a3d7xyplot" class="plotclip"><rect width="464" height="320"/></clipPath><clipPath class="axesclip" id="clip20a3d7x"><rect x="80" y="0" width="464" height="500"/></clipPath><clipPath class="axesclip" id="clip20a3d7y"><rect x="0" y="100" width="700" height="320"/></clipPath><clipPath class="axesclip" id="clip20a3d7xy"><rect x="80" y="100" width="464" height="320"/></clipPath></g><g class="gradients"/><g class="patterns"/></defs><g class="bglayer"><rect class="bg" x="80" y="100" width="464" height="320" style="fill: rgb(0, 0, 0); fill-opacity: 0; stroke-width: 0;"/></g><g class="layer-below"><g class="imagelayer"/><g class="shapelayer"/></g><g class="cartesianlayer"><g class="subplot xy"><g class="layer-subplot"><g class="shapelayer"/><g class="imagelayer"/></g><g class="minor-gridlayer"><g class="x"/><g class="y"/></g><g class="gridlayer"><g class="x"><path class="xgrid crisp" transform="translate(155.20999999999998,0)" d="M0,100v320" style="stroke: rgb(255, 255, 255); stroke-opacity: 1; stroke-width: 1px;"/><path class="xgrid crisp" transform="translate(232.97,0)" d="M0,100v320" style="stroke: rgb(255, 255, 255); stroke-opacity: 1; stroke-width: 1px;"/><path class="xgrid crisp" transform="translate(310.73,0)" d="M0,100v320" style="stroke: rgb(255, 255, 255); stroke-opacity: 1; stroke-width: 1px;"/><path class="xgrid crisp" transform="translate(389.76,0)" d="M0,100v320" style="stroke: rgb(255, 255, 255); stroke-opacity: 1; stroke-width: 1px;"/><path class="xgrid crisp" transform="translate(467.52,0)" d="M0,100v320" style="stroke: rgb(255, 255, 255); stroke-opacity: 1; stroke-width: 1px;"/></g><g class="y"><path class="ygrid crisp" transform="translate(0,347.01)" d="M80,0h464" style="stroke: rgb(255, 255, 255); stroke-opacity: 1; stroke-width: 1px;"/><path class="ygrid crisp" transform="translate(0,290.02)" d="M80,0h464" style="stroke: rgb(255, 255, 255); stroke-opacity: 1; stroke-width: 1px;"/><path class="ygrid crisp" transform="translate(0,233.03)" d="M80,0h464" style="stroke: rgb(255, 255, 255); stroke-opacity: 1; stroke-width: 1px;"/><path class="ygrid crisp" transform="translate(0,176.04000000000002)" d="M80,0h464" style="stroke: rgb(255, 255, 255); stroke-opacity: 1; stroke-width: 1px;"/><path class="ygrid crisp" transform="translate(0,119.05)" d="M80,0h464" style="stroke: rgb(255, 255, 255); stroke-opacity: 1; stroke-width: 1px;"/></g></g><g class="zerolinelayer"><path class="yzl zl crisp" transform="translate(0,404)" d="M80,0h464" style="stroke: rgb(255, 255, 255); stroke-opacity: 1; stroke-width: 2px;"/></g><path class="xlines-below"/><path class="ylines-below"/><g class="overlines-below"/><g class="xaxislayer-below"/><g class="yaxislayer-below"/><g class="overaxes-below"/><g class="plot" transform="translate(80,100)" clip-path="url(#clip20a3d7xyplot)"><g class="scatterlayer mlayer"><g class="trace scatter traceba510c" style="stroke-miterlimit: 2; opacity: 1;"><g class="fills"/><g class="errorbars"/><g class="lines"><path class="js-line" d="M0,304L8.92,304L10.2,98.84L11.47,221.93L12.75,271.17L14.02,290.87L15.3,230.36L16.57,206.16L17.85,264.86L19.12,288.34L20.4,229.35L21.67,205.75L22.95,264.7L24.22,151.5L25.49,174.61L26.77,252.25L28.04,283.3L29.32,158.94L30.59,245.98L31.87,212.4L33.14,198.97L34.42,261.99L35.69,287.2L36.97,297.28L38.24,232.92L39.52,138.79L40.79,237.92L42.07,209.18L43.34,197.68L44.62,261.47L45.89,286.99L47.16,297.2L48.44,301.28L50.99,139.43L52.26,169.79L53.54,181.93L54.81,255.17L56.09,284.47L57.36,159.41L58.64,41L59.91,198.8L61.19,261.92L62.46,287.17L63.74,297.27L65.01,301.31L67.56,303.57L68.84,303.83L70.11,235.54L71.38,276.62L72.66,293.05L73.93,299.62L75.21,302.25L76.48,234.91L77.76,276.36L79.03,292.95L80.31,299.58L81.58,233.84L82.86,207.55L84.13,197.03L85.41,124.44L86.68,232.17L87.96,138.49L89.23,237.8L90.51,209.13L91.78,266.05L93.05,220.43L94.33,133.8L95.6,167.53L96.88,249.41L98.15,282.16L99.43,295.27L100.7,163.73L101.98,247.89L103.25,213.17L104.53,267.67L105.8,221.08L107.08,270.83L108.35,290.73L109.63,230.31L110.9,274.52L112.18,292.21L113.45,162.51L114.73,247.4L116,281.36L117.27,294.94L119.82,302.55L121.1,303.42L122.37,235.38L123.65,276.55L124.92,293.02L126.2,299.61L127.47,233.86L128.75,275.94L130.02,224.39L131.3,272.16L132.57,222.87L133.85,203.16L135.12,195.28L136.4,260.51L137.67,218.22L138.95,269.69L140.22,290.27L141.49,298.51L144.04,303.12L145.32,303.65L146.59,303.86L147.87,235.56L149.14,276.62L150.42,293.05L151.69,299.62L152.97,233.86L154.24,275.94L155.52,224.39L156.79,203.77L158.07,263.91L159.34,219.58L160.62,270.23L161.89,290.49L163.16,230.21L164.44,274.48L165.71,223.81L166.99,203.53L168.26,263.81L169.54,219.54L170.81,270.22L172.09,290.49L173.36,93.43L174.64,219.77L175.91,270.31L177.19,222.14L178.46,134.48L179.74,236.19L181.01,208.49L182.29,265.8L183.56,288.72L184.84,229.5L186.11,205.81L187.38,264.72L188.66,151.51L189.93,243.01L191.21,279.6L192.48,294.24L193.76,231.71L195.03,275.08L196.31,224.05L197.58,203.63L198.86,263.85L200.13,287.94L201.41,229.19L202.68,274.08L203.96,292.03L205.23,230.82L206.51,274.73L207.78,223.9L209.05,271.96L210.33,291.18L211.6,298.87L214.15,303.18L215.43,303.67L220.53,303.99L221.8,235.61L223.08,276.64L224.35,156.28L225.63,244.91L226.9,280.37L228.18,294.55L229.45,163.44L230.73,247.78L232,281.51L233.27,295L234.55,300.4L235.82,302.56L237.1,235.04L238.37,208.03L239.65,197.22L240.92,192.9L242.2,259.56L243.47,149.45L244.75,242.18L246.02,142.5L247.3,239.4L248.57,209.77L249.85,197.92L251.12,261.57L252.4,287.03L253.67,228.82L254.95,273.93L256.22,223.58L257.49,271.83L258.77,154.36L260.04,244.14L261.32,211.67L262.59,267.07L263.87,289.23L265.14,298.09L267.69,303.05L268.97,235.23L270.24,276.49L271.52,224.61L272.79,203.86L274.07,263.94L275.34,287.98L276.62,229.2L277.89,274.08L279.16,292.03L280.44,299.21L281.71,165.31L282.99,43.36L284.26,199.74L285.54,262.3L286.81,218.93L288.09,201.58L289.36,126.26L290.64,96.13L291.91,152.46L293.19,243.39L294.46,142.98L295.74,239.59L297.01,278.24L298.29,293.69L299.56,299.88L300.84,233.96L302.11,275.99L303.38,292.79L304.66,231.13L305.93,274.85L307.21,223.95L308.48,135.21L309.76,168.09L311.03,249.64L312.31,282.26L313.58,295.3L314.86,232.13L317.41,32.63L318.68,195.45L319.96,260.58L321.23,286.63L322.51,228.66L323.78,205.48L325.05,196.2L326.33,260.88L327.6,286.75L328.88,228.71L330.15,273.89L331.43,291.95L332.7,299.18L333.98,96.91L335.25,16L336.53,188.8L337.8,189.53L339.08,258.21L340.35,285.69L341.63,228.29L342.9,273.71L344.18,223.5L345.45,271.8L346.73,222.73L348,271.49L349.27,291L350.55,230.41L351.82,274.56L353.1,223.84L354.37,203.55L355.65,263.82L356.92,219.54L358.2,270.22L359.47,222.1L360.75,271.24L362.02,290.9L364.57,301.9L365.85,166.39L367.12,180.57L368.4,186.24L369.67,256.9L370.95,216.77L372.22,200.72L373.49,194.3L374.77,260.12L376.04,286.45L377.32,296.98L378.59,232.8L379.87,138.75L381.14,237.9L382.42,277.56L383.69,293.42L386.24,302.31L387.52,303.32L388.79,166.95L390.07,249.18L391.34,282.07L392.62,226.84L393.89,273.14L395.16,223.27L396.44,134.93L397.71,236.37L398.99,276.95L400.26,293.18L402.81,302.27L404.09,234.92L405.36,276.37L406.64,292.95L407.91,299.58L409.19,302.23L411.74,303.72L413.01,235.5L414.29,208.21L415.56,128.91L416.84,233.96L418.11,207.6L419.38,265.44L420.66,220.19L421.93,270.48L423.21,290.59L424.48,298.64L425.76,301.85L427.03,303.14L428.31,166.88L429.58,180.76L430.86,254.71L432.13,147.51L433.41,241.4L434.68,210.57L435.96,266.63L437.23,289.05L438.51,161.24L439.78,246.9L441.05,212.77L442.33,267.51L443.6,289.4L444.88,298.16L446.15,301.66L448.7,139.5L449.98,238.2L451.25,277.68L452.53,293.47L453.8,299.79L455.08,302.32L457.63,43.86L458.9,131.55L460.18,235.02L461.45,276.41L462.73,292.96L464,231.2" style="vector-effect: none; fill: none; stroke: rgb(99, 110, 250); stroke-opacity: 1; stroke-width: 2px; opacity: 1;"/></g><g class="points"/><g class="text"/></g></g></g><g class="overplot"/><path class="xlines-above crisp" d="M0,0" style="fill: none;"/><path class="ylines-above crisp" d="M0,0" style="fill: none;"/><g class="overlines-above"/><g class="xaxislayer-above"><g class="xtick"><text text-anchor="middle" x="0" y="433" transform="translate(80,0)" style="font-family: 'Open Sans', verdana, arial, sans-serif; font-size: 12px; fill: rgb(42, 63, 95); fill-opacity: 1; white-space: pre; opacity: 1;">Jan 2019</text></g><g class="xtick"><text text-anchor="middle" x="0" y="433" style="font-family: 'Open Sans', verdana, arial, sans-serif; font-size: 12px; fill: rgb(42, 63, 95); fill-opacity: 1; white-space: pre; opacity: 1;" transform="translate(155.20999999999998,0)">Mar 2019</text></g><g class="xtick"><text text-anchor="middle" x="0" y="433" style="font-family: 'Open Sans', verdana, arial, sans-serif; font-size: 12px; fill: rgb(42, 63, 95); fill-opacity: 1; white-space: pre; opacity: 1;" transform="translate(232.97,0)">May 2019</text></g><g class="xtick"><text text-anchor="middle" x="0" y="433" style="font-family: 'Open Sans', verdana, arial, sans-serif; font-size: 12px; fill: rgb(42, 63, 95); fill-opacity: 1; white-space: pre; opacity: 1;" transform="translate(310.73,0)">Jul 2019</text></g><g class="xtick"><text text-anchor="middle" x="0" y="433" style="font-family: 'Open Sans', verdana, arial, sans-serif; font-size: 12px; fill: rgb(42, 63, 95); fill-opacity: 1; white-space: pre; opacity: 1;" transform="translate(389.76,0)">Sep 2019</text></g><g class="xtick"><text text-anchor="middle" x="0" y="433" style="font-family: 'Open Sans', verdana, arial, sans-serif; font-size: 12px; fill: rgb(42, 63, 95); fill-opacity: 1; white-space: pre; opacity: 1;" transform="translate(467.52,0)">Nov 2019</text></g></g><g class="yaxislayer-above"><g class="ytick"><text text-anchor="end" x="79" y="4.199999999999999" transform="translate(0,404)" style="font-family: 'Open Sans', verdana, arial, sans-serif; font-size: 12px; fill: rgb(42, 63, 95); fill-opacity: 1; white-space: pre; opacity: 1;">0</text></g><g class="ytick"><text text-anchor="end" x="79" y="4.199999999999999" style="font-family: 'Open Sans', verdana, arial, sans-serif; font-size: 12px; fill: rgb(42, 63, 95); fill-opacity: 1; white-space: pre; opacity: 1;" transform="translate(0,347.01)">0.5</text></g><g class="ytick"><text text-anchor="end" x="79" y="4.199999999999999" style="font-family: 'Open Sans', verdana, arial, sans-serif; font-size: 12px; fill: rgb(42, 63, 95); fill-opacity: 1; white-space: pre; opacity: 1;" transform="translate(0,290.02)">1</text></g><g class="ytick"><text text-anchor="end" x="79" y="4.199999999999999" style="font-family: 'Open Sans', verdana, arial, sans-serif; font-size: 12px; fill: rgb(42, 63, 95); fill-opacity: 1; white-space: pre; opacity: 1;" transform="translate(0,233.03)">1.5</text></g><g class="ytick"><text text-anchor="end" x="79" y="4.199999999999999" style="font-family: 'Open Sans', verdana, arial, sans-serif; font-size: 12px; fill: rgb(42, 63, 95); fill-opacity: 1; white-space: pre; opacity: 1;" transform="translate(0,176.04000000000002)">2</text></g><g class="ytick"><text text-anchor="end" x="79" y="4.199999999999999" style="font-family: 'Open Sans', verdana, arial, sans-serif; font-size: 12px; fill: rgb(42, 63, 95); fill-opacity: 1; white-space: pre; opacity: 1;" transform="translate(0,119.05)">2.5</text></g></g><g class="overaxes-above"/></g></g><g class="polarlayer"/><g class="smithlayer"/><g class="ternarylayer"/><g class="geolayer"/><g class="funnelarealayer"/><g class="pielayer"/><g class="iciclelayer"/><g class="treemaplayer"/><g class="sunburstlayer"/><g class="glimages"/><defs id="topdefs-20a3d7"><g class="clips"/><clipPath id="legend20a3d7"><rect width="135" height="48" x="0" y="0"/></clipPath></defs><g class="layer-above"><g class="imagelayer"/><g class="shapelayer"/></g><g class="infolayer"><g class="legend" pointer-events="all" transform="translate(553.28,100)"><rect class="bg" shape-rendering="crispEdges" width="135" height="48" x="0" y="0" style="stroke: rgb(68, 68, 68); stroke-opacity: 1; fill: rgb(0, 0, 0); fill-opacity: 0; stroke-width: 0px;"/><g class="scrollbox" transform="" clip-path="url(#legend20a3d7)"><text class="legendtitletext" text-anchor="start" x="2" y="18.2" style="font-family: 'Open Sans', verdana, arial, sans-serif; font-size: 14px; fill: rgb(42, 63, 95); fill-opacity: 1; white-space: pre;">variable</text><g class="groups" transform=""><g class="traces" transform="translate(0,32.7)" style="opacity: 1;"><text class="legendtext" text-anchor="start" x="40" y="4.680000000000001" style="font-family: 'Open Sans', verdana, arial, sans-serif; font-size: 12px; fill: rgb(42, 63, 95); fill-opacity: 1; white-space: pre;">suavizado_exp</text><g class="layers" style="opacity: 1;"><g class="legendfill"/><g class="legendlines"><path class="js-line" d="M5,0h30" style="fill: none; stroke: rgb(99, 110, 250); stroke-opacity: 1; stroke-width: 2px;"/></g><g class="legendsymbols"><g class="legendpoints"/></g></g><rect class="legendtoggle" x="0" y="-9.5" width="129.515625" height="19" style="fill: rgb(0, 0, 0); fill-opacity: 0;"/></g></g></g><rect class="scrollbar" rx="20" ry="3" width="0" height="0" x="0" y="0" style="fill: rgb(128, 139, 164); fill-opacity: 1;"/></g><g class="g-gtitle"><text class="gtitle" x="35" y="50" text-anchor="start" dy="0em" style="font-family: 'Open Sans', verdana, arial, sans-serif; font-size: 17px; fill: rgb(42, 63, 95); opacity: 1; font-weight: normal; white-space: pre;">Violencia LGBTQ+ en 2019</text></g><g class="g-xtitle"><text class="xtitle" x="312" y="460.3" text-anchor="middle" style="font-family: 'Open Sans', verdana, arial, sans-serif; font-size: 14px; fill: rgb(42, 63, 95); opacity: 1; font-weight: normal; white-space: pre;">Fecha</text></g><g class="g-ytitle"><text class="ytitle" transform="rotate(-90,35.075,260)" x="35.075" y="260" text-anchor="middle" style="font-family: 'Open Sans', verdana, arial, sans-serif; font-size: 14px; fill: rgb(42, 63, 95); opacity: 1; font-weight: normal; white-space: pre;">value</text></g></g></svg>